<?xml version="1.0" encoding="utf-8"?>
<!-- Generator: Adobe Illustrator 25.2.0, SVG Export Plug-In . SVG Version: 6.00 Build 0)  -->
<svg version="1.1" id="Layer_1" xmlns="http://www.w3.org/2000/svg" xmlns:xlink="http://www.w3.org/1999/xlink" x="0px" y="0px"
	 viewBox="0 0 642.2 157.1" style="enable-background:new 0 0 642.2 157.1;" xml:space="preserve">
<style type="text/css">
	.st0{clip-path:url(#SVGID_2_);}
	.st1{clip-path:url(#SVGID_4_);}
	.st2{clip-path:url(#SVGID_6_);}
	.st3{clip-path:url(#SVGID_8_);}
	.st4{fill:#F9B233;}
	.st5{clip-path:url(#SVGID_10_);}
	.st6{fill:#3C857D;}
	.st7{fill:#FFFFFF;}
	.st8{clip-path:url(#SVGID_12_);}
	.st9{fill:#4DBFEF;}
	.st10{clip-path:url(#SVGID_14_);}
	.st11{clip-path:url(#SVGID_16_);}
	.st12{clip-path:url(#SVGID_18_);}
	.st13{fill:#F39200;}
	.st14{font-family:'CoconNextArabic-Light';}
	.st15{font-size:40.5463px;}
	.st16{clip-path:url(#SVGID_20_);}
	.st17{clip-path:url(#SVGID_22_);}
	.st18{fill:#194DCF;}
	.st19{fill:#E56610;}
	.st20{fill:#FF8812;}
	.st21{fill:#0404A0;}
	.st22{fill:none;}
</style>
<g>
	<g>
		<defs>
			<rect id="SVGID_1_" x="-46.4" y="-111.2" width="361.9" height="361.9"/>
		</defs>
		<clipPath id="SVGID_2_">
			<use xlink:href="#SVGID_1_"  style="overflow:visible;"/>
		</clipPath>
		<g class="st0">
			<g>
				<defs>
					<rect id="SVGID_3_" x="-46.4" y="-111.2" width="361.9" height="361.9"/>
				</defs>
				<clipPath id="SVGID_4_">
					<use xlink:href="#SVGID_3_"  style="overflow:visible;"/>
				</clipPath>
				<g class="st1">
					<g>
						<defs>
							<rect id="SVGID_5_" x="-46.4" y="-111.2" width="361.9" height="361.9"/>
						</defs>
						<clipPath id="SVGID_6_">
							<use xlink:href="#SVGID_5_"  style="overflow:visible;"/>
						</clipPath>
						<g class="st2">
							<g>
								<g>
									<defs>
										<rect id="SVGID_7_" x="71.7" y="10.8" width="57.8" height="140.4"/>
									</defs>
									<clipPath id="SVGID_8_">
										<use xlink:href="#SVGID_7_"  style="overflow:visible;"/>
									</clipPath>
									<g class="st3">
										<path class="st4" d="M101.6,18.1C95.8,14,89,11.5,81.9,10.8c-1,1.4-2.1,2.8-3,4.3c7.2,0.2,14.2,2.5,20.1,6.6
											c1,0.7,2.4,0.5,3.1-0.5C102.8,20.2,102.6,18.8,101.6,18.1"/>
										<path class="st4" d="M79.2,150.4c0.7,0.3,1.4,0.5,2.1,0.7c9.3-1.2,18-5.3,24.9-11.6c15.1-13.3,24.2-36.4,23.2-58.8
											c-1.9-44.5-21.7-56.7-22.6-57.2c-1.1-0.6-2.4-0.1-3,1c-0.5,1-0.2,2.2,0.7,2.9c0.2,0.1,18.6,11.8,20.4,53.6
											c0.9,21.2-7.6,42.9-21.7,55.3c-7.8,7.1-17.9,11-28.4,10.8C75.9,148.6,77.4,149.7,79.2,150.4"/>
										<path class="st4" d="M113.8,45.2c-0.5-1-11.8-26-35.5-26l0,0c-0.6,0-1.3,0-1.9,0.1c-0.8,1.5-1.4,3.1-1.9,4.7
											c1.2-0.2,2.5-0.3,3.8-0.3c20.7,0,31.3,23.2,31.4,23.4c0.5,1.1,1.8,1.7,3,1.2C113.9,47.7,114.4,46.4,113.8,45.2"/>
										<path class="st4" d="M114.5,112.7c-1.2,0-2.2-1-2.2-2.3c0-0.3,0-0.5,0.1-0.7c11-30.1,0.3-55.3,0.2-55.5
											c-0.5-1.1,0-2.5,1.2-3c1.1-0.5,2.5,0,3,1.2l0,0c0.5,1.1,11.6,27-0.1,58.9c-0.3,0.9-1.1,1.4-2.1,1.5"/>
										<path class="st4" d="M111.8,115.6c-1.1-0.4-2.4,0.1-2.9,1.3c0,0,0,0,0,0c-0.1,0.2-6.8,17-24.9,21.2
											c-3.8,0.9-7.7,1.3-11.6,1.2c0.1,1.5,0.4,3,0.8,4.4c0.2,0,0.5,0,0.8,0c3.7,0,7.5-0.5,11.1-1.3
											c20.4-4.7,27.8-23.1,28.1-23.9C113.5,117.3,112.9,116,111.8,115.6"/>
										<path class="st4" d="M110.1,56.4c-5.6-16-16.4-25.5-29.5-26c-2.4-0.1-4.7,0.1-7,0.5c-0.1,1.5-0.2,3.1-0.2,4.7
											c2.3-0.6,4.7-0.9,7-0.8c15.3,0.7,22.5,14.8,25.5,23.1c7.1,20.2,4.6,49.8-11.9,64.5c-7,6.2-14.8,9-22.3,8.2
											c0.2,1.5,0.4,3,0.4,4.5c0.7,0,1.4,0.1,2.1,0.1c7.7,0,15.6-3.2,22.7-9.5C114.8,109.8,117.6,78,110.1,56.4"/>
										<path class="st4" d="M106.2,82.5c-0.5-17-4.8-29.1-12.8-35.9c-4.9-4.3-11.4-6.3-17.9-5.6c-0.7,0.1-1.4,0.2-2.1,0.4
											c0.1,1.5,0.1,3,0.2,4.5c0.8-0.2,1.6-0.4,2.4-0.5c5.2-0.5,10.5,1.1,14.4,4.6c7,6,10.8,17,11.3,32.7
											c1.2,38.1-25.6,40.3-26.9,40.4c-1.2,0.1-2.1,1.2-2,2.4c0.1,1.1,1,2,2.2,2h0.1C75.5,127.5,107.5,125.1,106.2,82.5"/>
										<path class="st4" d="M86.8,54.6c-3.4-3.1-8-4.6-12.6-4L74,50.7c0.1,1.5,0.3,3,0.4,4.5c0.1-0.1,0.3-0.1,0.4-0.1
											c3.3-0.4,6.7,0.6,9.1,2.9c5.7,5,8.8,15.4,8.8,29.3c0,25.6-17.9,26.9-18.6,27c-1,0-1.8,0.7-2.1,1.6
											c0.1,0.6,0.2,1.2,0.3,1.8c0.4,0.6,1.1,1,1.9,1h0.1c0.2,0,22.9-1.4,22.9-31.4C97.2,67.7,91.5,58.7,86.8,54.6"/>
										<path class="st4" d="M76,76.1c1.1,1.9,2.3,8.2,1.6,15.4c-0.2,1.8-0.5,3.6-1,5.3c-0.1,2.2-1.6,4.5-2.7,6.7
											c0.2,0.7,0.6,1.4,1,2.1c4.8-4.8,7.7-14.4,7.2-21.9c-0.3-4-1.3-11-5-12.3c-0.5-0.2-1-0.2-1.6-0.1
											C75.7,72.9,75.8,74.4,76,76.1L76,76.1"/>
										<path class="st4" d="M83.7,63.3c-1.7-2-4.2-3.2-6.9-3.3c-0.7,0-1.3,0.1-2,0.3c0.1,1.6,0.2,3.1,0.3,4.7
											c0.5-0.3,1.1-0.5,1.6-0.5c1.4,0,2.7,0.7,3.6,1.8c4.1,4.5,5.7,15.7,4.9,23.4c-0.6,6-2.9,13.4-7.5,16.4
											c-1,0.7-1.3,2.1-0.6,3.1s2.1,1.3,3.1,0.6l0,0c7.2-4.7,9-15.3,9.5-19.7C90.4,83.2,89.5,69.7,83.7,63.3"/>
									</g>
								</g>
							</g>
							<g>
								<g>
									<g>
										<defs>
											<rect id="SVGID_9_" x="71.7" y="10.8" width="57.8" height="140.4"/>
										</defs>
										<clipPath id="SVGID_10_">
											<use xlink:href="#SVGID_9_"  style="overflow:visible;"/>
										</clipPath>
										<g class="st5">
											<path class="st4" d="M101.6,18.1C95.8,14,89,11.5,81.9,10.8c-1,1.4-2.1,2.8-3,4.3c7.2,0.2,14.2,2.5,20.1,6.6
												c1,0.7,2.4,0.5,3.1-0.5C102.8,20.2,102.6,18.8,101.6,18.1"/>
											<path class="st4" d="M79.2,150.4c0.7,0.3,1.4,0.5,2.1,0.7c9.3-1.2,18-5.3,24.9-11.6c15.1-13.3,24.2-36.4,23.2-58.8
												c-1.9-44.5-21.7-56.7-22.6-57.2c-1.1-0.6-2.4-0.1-3,1c-0.5,1-0.2,2.2,0.7,2.9c0.2,0.1,18.6,11.8,20.4,53.6
												c0.9,21.2-7.6,42.9-21.7,55.3c-7.8,7.1-17.9,11-28.4,10.8C75.9,148.6,77.4,149.7,79.2,150.4"/>
											<path class="st4" d="M113.8,45.2c-0.5-1-11.8-26-35.5-26l0,0c-0.6,0-1.3,0-1.9,0.1c-0.8,1.5-1.4,3.1-1.9,4.7
												c1.2-0.2,2.5-0.3,3.8-0.3c20.7,0,31.3,23.2,31.4,23.4c0.5,1.1,1.8,1.7,3,1.2C113.9,47.7,114.4,46.4,113.8,45.2"/>
											<path class="st4" d="M114.5,112.7c-1.2,0-2.2-1-2.2-2.3c0-0.3,0-0.5,0.1-0.7c11-30.1,0.3-55.3,0.2-55.5
												c-0.5-1.1,0-2.5,1.2-3c1.1-0.5,2.5,0,3,1.2l0,0c0.5,1.1,11.6,27-0.1,58.9c-0.3,0.9-1.1,1.4-2.1,1.5"/>
											<path class="st4" d="M111.8,115.6c-1.1-0.4-2.4,0.1-2.9,1.3c0,0,0,0,0,0c-0.1,0.2-6.8,17-24.9,21.2
												c-3.8,0.9-7.7,1.3-11.6,1.2c0.1,1.5,0.4,3,0.8,4.4c0.2,0,0.5,0,0.8,0c3.7,0,7.5-0.5,11.1-1.3
												c20.4-4.7,27.8-23.1,28.1-23.9C113.5,117.3,112.9,116,111.8,115.6"/>
											<path class="st4" d="M110.1,56.4c-5.6-16-16.4-25.5-29.5-26c-2.4-0.1-4.7,0.1-7,0.5c-0.1,1.5-0.2,3.1-0.2,4.7
												c2.3-0.6,4.7-0.9,7-0.8c15.3,0.7,22.5,14.8,25.5,23.1c7.1,20.2,4.6,49.8-11.9,64.5c-7,6.2-14.8,9-22.3,8.2
												c0.2,1.5,0.4,3,0.4,4.5c0.7,0,1.4,0.1,2.1,0.1c7.7,0,15.6-3.2,22.7-9.5C114.8,109.8,117.6,78,110.1,56.4"/>
											<path class="st4" d="M106.2,82.5c-0.5-17-4.8-29.1-12.8-35.9c-4.9-4.3-11.4-6.3-17.9-5.6c-0.7,0.1-1.4,0.2-2.1,0.4
												c0.1,1.5,0.1,3,0.2,4.5c0.8-0.2,1.6-0.4,2.4-0.5c5.2-0.5,10.5,1.1,14.4,4.6c7,6,10.8,17,11.3,32.7
												c1.2,38.1-25.6,40.3-26.9,40.4c-1.2,0.1-2.1,1.2-2,2.4c0.1,1.1,1,2,2.2,2h0.1C75.5,127.5,107.5,125.1,106.2,82.5"/>
											<path class="st4" d="M86.8,54.6c-3.4-3.1-8-4.6-12.6-4L74,50.7c0.1,1.5,0.3,3,0.4,4.5c0.1-0.1,0.3-0.1,0.4-0.1
												c3.3-0.4,6.7,0.6,9.1,2.9c5.7,5,8.8,15.4,8.8,29.3c0,25.6-17.9,26.9-18.6,27c-1,0-1.8,0.7-2.1,1.6
												c0.1,0.6,0.2,1.2,0.3,1.8c0.4,0.6,1.1,1,1.9,1h0.1c0.2,0,22.9-1.4,22.9-31.4C97.2,67.7,91.5,58.7,86.8,54.6"/>
											<path class="st4" d="M83.7,63.3c-1.7-2-4.2-3.2-6.9-3.3c-0.7,0-1.3,0.1-2,0.3c0.1,1.6,0.2,3.1,0.3,4.7
												c0.5-0.3,1.1-0.5,1.6-0.5c1.4,0,2.7,0.7,3.6,1.8c4.1,4.5,5.7,15.7,4.9,23.4c-0.6,6-2.9,13.4-7.5,16.4
												c-1,0.7-1.3,2.1-0.6,3.1s2.1,1.3,3.1,0.6l0,0c7.2-4.7,9-15.3,9.5-19.7C90.4,83.2,89.5,69.7,83.7,63.3"/>
											<path class="st4" d="M76,76.1c1.1,1.9,2.3,8.2,1.6,15.4c-0.2,1.8-0.5,3.6-1,5.3c-0.1,2.2-1.6,4.5-2.7,6.7
												c0.2,0.7,0.6,1.4,1,2.1c4.8-4.8,7.7-14.4,7.2-21.9c-0.3-4-1.3-11-5-12.3c-0.5-0.2-1-0.2-1.6-0.1
												C75.7,72.9,75.8,74.4,76,76.1L76,76.1"/>
										</g>
									</g>
								</g>
							</g>
							<path class="st6" d="M66.4,112.3c-2.2-8.6,2.5-17.8,0.9-26.5c-0.5-2-0.9-4.1-1.2-6.1c0-2.2,0.2-4.4,0.6-6.6
								c0.7-7.2-2.1-14.5-0.8-21.7c0.4-1.7,0.7-3.5,0.7-5.2c-0.3-1.8-0.8-3.5-1.6-5.2c-1.8-4.9-2.2-10.3-1.1-15.5
								c1-4.4,3-9.2,1-13.2c-2-3.5-6.4-4.8-10-3c-3.3,1.9-5.3,6.3-9.1,6.5c-1.5,0.1-2.9-0.6-4.4-0.4c-3.4,0.5-4.4,4.7-6.4,7.5
								c-2.7,3.7-8,5.4-9.2,9.8s2,9.7-1.2,12.7c-1.5,1.5-3.9,1.6-5.7,2.8c-2.2,1.5-2.9,4.5-2.9,7.2c0,2.7,0.4,5.5-0.3,8.1
								c-1.4,5.2-6.9,8.8-7,14.1c0,3.4,2.3,6.6,2.2,10c-0.1,5-5,9.3-3.7,14.1c0.9,3.4,4.7,5.4,5.7,8.8c0.7,2.4-0.1,4.9-0.8,7.3
								c-1,3.1-1.7,9.3,2.7,11.8c2.9,1.7,5.4,3.9,7.4,6.6c0.5,0.7,3.1,5.1,8.5,5.6c2.7,0.2,5.4,0.2,7.9,1.1c1.9,0.9,3.6,2,5.3,3.4
								c2.7,2.1,6,3.3,9.4,3.6c3.4,0.2,6.8-1.3,8.9-4c3.4-5,0.6-12.3,3.3-17.7c0.8-1.7,2.2-3.2,2.7-5
								C69.4,119.5,67.3,115.9,66.4,112.3"/>
							<path class="st7" d="M58.2,15.6c0.3,0.2,0.7,0.4,1,0.6c0.8,0.3,1.8,0.3,2.6-0.1c1.1-0.4,2.3-1.2,2.3-2.4
								c-0.1-0.7-0.6-1.4-1.3-1.6c-0.7-0.2-1.5-0.2-2.2-0.1c-3.2,0.5-6,2.3-7.8,5c-0.2,0.4-0.7,0.6-1.1,0.5
								c-2.3-0.3-4.5,0.8-5.7,2.8c-0.3,0.8-0.7,1.7-1.2,2.5c-0.5,0.8-1.5,1.1-2.4,0.7c-0.5-0.5-0.8-1.1-0.8-1.8
								c-1.3,0.4-2.8,0.9-3.2,2.2c-0.3,1,0.1,2.1,1,2.7c0.8,0.6,1.8,0.9,2.9,0.8c2.4-0.1,4.7-1.4,6-3.4c0.5-0.7,0.9-1.7,1.7-1.9
								c0.6-0.1,1.2,0.1,1.6,0.6c0.4,0.4,0.7,1,0.9,1.5c-1.7,0.3-3.1,1.3-4,2.7c-0.9,1.4-1.3,3.1-1.3,4.8c0,0.5,0,0.9,0.2,1.3
								c0.6,1.1,2.3,1.2,3.3,0.4c0.9-0.9,1.6-2,2-3.2c0.4-1.2,1.2-2.3,2.2-3c1.4-0.7,3.1-0.2,4.6-0.6c1.5-0.4,2.8-1.8,3.8-3.2
								c0.5-0.7,0.9-1.5,1.1-2.3c0.1-0.9-0.3-1.7-1.1-2.1c-1.1-0.4-2.1,0.6-2.8,1.6c-0.6,1-1.3,2.1-2.5,2.2c-0.6,0-1.2-0.2-1.7-0.6
								c-0.8-0.6-1.4-1.3-1.9-2.2c-0.1-0.1-0.1-0.3-0.1-0.5c0-0.3,0.1-0.5,0.3-0.7l1.3-1.9C56.4,16.3,57.2,15.3,58.2,15.6"/>
							<path class="st7" d="M39.9,38.8c0.2-0.3,0.3-0.7,0.1-1.1c-0.4-1.7-1.6-3-3.2-3.6c-0.5-0.2-1-0.3-1.6-0.5
								c-1.7-0.8-2.3-2.8-2.6-4.6c-0.2-1.1-0.3-2.2-0.3-3.3c-1.1,0.9-2.3,1.8-3.4,2.7c0.1,2.1,0.3,4.3,1.7,6
								c0.6,0.6,1.2,1.2,1.9,1.7c1.9,1.5,3.9,3,6.3,3.1C39.3,39.1,39.7,39,39.9,38.8"/>
							<path class="st7" d="M58.6,58.7c-0.6,1.9-1.2,3.9-0.5,5.7c0.3,0.9,0.9,1.6,1.3,2.5c0.6,1.4,0.9,2.9,0.8,4.4
								c0.1,1.6-0.3,3.3-1.1,4.7c-0.3,0.4-0.7,0.7-1.2,0.8c-1,0.1-1.7-0.9-1.9-1.9c-0.7-2.5-0.3-5.2-1.5-7.5c-0.3-0.6-0.8-1.2-1-1.8
								c-0.6-1.5-0.6-3.1-0.1-4.6c0.4-1.5,1-3,1.3-4.5c0.1-0.5,0.1-1,0-1.5c-0.2-0.5-0.4-0.9-0.7-1.3c-0.9-1.1-1.8-2.1-3-3
								c-1.3-1-3-2.1-3.2-3.8c2.8-0.8,5.9-0.1,8.1,2c1.4-1.8,1.1-4.3,0.5-6.5c-0.6-2.2-1.5-4.4-1-6.6c0.3-1.4,1.6-2.9,3-2.6
								c0.6,1.4,0,3-0.1,4.5c-0.2,3.5,2.2,6.8,2.1,10.3c-0.1,1.4-0.5,2.8-1.1,4.1c-0.3,0.6-0.5,1.2-0.5,1.9c0.1,1.5,1.9,2.2,2.8,3.3
								c1.7,2.2,0.1,5.7,1.4,8.2c0.6,1.1,1.7,1.9,2.2,3c0.2,0.3,0.2,0.7,0.2,1.1c-0.3,0.7-1.1,1-1.8,0.7c0,0,0,0,0,0
								c-0.6-0.3-1.2-0.9-1.5-1.5c-1.3-2.3-2.2-4.8-2.4-7.5c-0.1-1-0.2-2.1-1-2.6"/>
							<path class="st7" d="M36.8,41.7C36,41.3,35,41.1,34,41.2c-1.1,0-2.2,0.4-3.1,1c-1,0.8-1.8,2-3,2.2c-0.8,0.1-1.5-0.2-2.1-0.8
								c-0.2,0.7-0.6,1.3-1.1,1.8c-0.5,0.5-1.1,0.8-1.8,1.1c0,0.6-0.2,1.2-0.3,1.8c-0.4,1.1-0.9,2.1-1.5,3.1c-2,4.1-2.3,8.7-0.9,13
								c0.3,0.8,0.6,1.7,0.6,2.6c0,1.1-0.4,2.3-1.2,3.1c-0.7,0.8-1.7,1.7-1.3,2.7c0.3,0.6,0.9,0.9,1.6,0.8c0.6-0.1,1.2-0.4,1.6-0.9
								c2.2-2,3.3-5.1,2.9-8c-0.2-1.1-0.6-2.2-0.8-3.3c-0.7-3.8,0.4-7.6,3.1-10.4c0.2-0.2,0.4-0.4,0.7-0.5c0.3,0,0.6,0.1,0.9,0.3
								c0.6,0.5,1.1,1.1,1.6,1.8c0.5,0.6,1.5,0.9,2.1,0.4c0.9-0.8-0.2-2.3-0.1-3.5c0.2-1,0.7-1.8,1.5-2.4c0.8-0.9,1.8-1.6,3-1.9
								c0.4,0,0.8-0.2,1.2-0.4c0.2-0.1,0.3-0.3,0.4-0.5C38.1,43.3,37.7,42.3,36.8,41.7"/>
							<path class="st7" d="M38.3,48.7c1-1.2,1.8-2.5,2.6-3.8c0.9-2.2,0.2-4.6,0.2-6.9s1.2-5.2,3.5-5.3l0.6,5.6
								c0.2,1.4,0.3,2.8,0.1,4.2c-0.5,4.3-4.2,8.1-3.5,12.4c0,0.3,0.1,0.6,0.3,0.9c0.6,0.9,2.1,0.7,3.2,0.5c1.1-0.3,2.2-0.3,3.3,0.1
								c1.1,0.4,1.7,1.5,1.5,2.6c-0.4-0.8-1.3-1.1-2.1-0.7c0,0,0,0-0.1,0c-0.7,0.4-1.3,1.1-1.7,1.8c-1.1,1.8-2.3,3.9-1.6,5.9
								c0.3,0.7,0.6,1.4,1,2.1c1.5,3,0.8,6.6-0.4,9.7c-1.2,3.1-2.9,6.1-3.4,9.4c-0.1,0.7,0.1,1.6,0.8,1.6c0.3,0,0.6-0.2,0.8-0.4
								c2.7-2.5,5.5-5,6.7-8.5c0.2-0.9,0.6-1.8,1-2.7c0.5-0.9,1.4-1.4,2.4-1.3c-0.3,3.7,0,7.4,0.8,11c-0.4,0.3-0.9,0.2-1.2-0.1
								c-0.3-0.3-0.6-0.7-0.9-0.9c-0.7-0.4-1.5-0.4-2.2,0.1c-0.6,0.4-1.2,1-1.6,1.6l-2.1,2.6c-0.5,0.6-0.9,1.3-1.2,2.1
								c-0.3,1.6,1,3.1,2.2,4.2c1.3,1.1,2.5,2.4,3.5,3.8c1,1.4,1.3,3.2,0.9,4.9c-0.1,0.2-0.2,0.5-0.3,0.6c-0.5,0.5-1.5,0.2-2.1-0.4
								c-1.9-1.8-1.9-4.8-3.3-7c-0.2-0.5-0.7-0.8-1.2-0.9c-0.8,0-1.3,0.8-1.4,1.6c0,0.8,0,1.5-0.1,2.3c-0.2,0.7-1,1.5-1.7,1.1
								c-0.4-0.2-0.7-0.7-0.7-1.1c-0.7-2.7,0.7-5.8-0.4-8.3c-0.8-1.8-2.6-2.8-3.9-4.3c-0.3-0.4-0.6-0.7-1-1
								c-0.4-0.2-0.9-0.3-1.4-0.3c-1.3,0.1-2.6,0-3.9-0.1c-1.3-0.2-2.4-1.1-2.8-2.3c0.8-0.6,1.8-0.5,2.8-0.5c1-0.1,2.1-0.6,2.1-1.6
								c-0.1-0.8-0.9-1.3-1.6-1.8c-0.6-0.5-1-1.7-0.3-2.1c0.2-0.1,0.4-0.1,0.6-0.1c2.9,0,5.5,1.5,8,2.9c0.1-2.9,1.6-5.5,2.8-8.1
								c0.4-0.9,0.7-2.2-0.1-2.8c-0.4-0.3-0.9-0.3-1.3-0.5c-0.4-0.3-0.7-0.7-0.8-1.2c-0.7-1.8-0.7-3.7-1.6-5.4
								c-0.8-1.7-2.9-3-4.6-2.1L33.3,65c0,0.4-0.1,0.8-0.3,1.2c-0.3,0.3-0.6,0.6-1,0.8c-1.5,0.7-3.1,1.2-4.7,1.6
								c-0.8-0.5-0.5-1.7,0.2-2.4c0.6-0.6,1.6-1.1,1.9-1.9c0.2-0.5,0.2-1,0.2-1.5c0-2.1,0-4.2,0-6.3c1-0.7,2.2-0.8,3.3-0.3
								c1,0.5,2,1.5,3.1,1.2c1.6-0.5,1-2.6,0.9-3.8C36.9,51.7,37.5,50.1,38.3,48.7"/>
							<path class="st7" d="M66.1,89.2c-0.6-0.3-1.2-0.6-1.7-1c-0.5-0.5-0.9-1.2-1.1-1.9c-0.4-1-0.9-2.1-1.3-3.1
								c-0.2-0.8-0.7-1.6-1.4-2.1c-0.7-0.4-1.9,0-2,0.8c1.5,0.9,1.8,2.9,1.9,4.7c0,1.7-0.2,3.6,0.5,5.2c0.6,1.1,1.6,2,2.8,2.3
								c0.7,0.1,1.4,0.3,2.1,0.7c0.4,0.4,0.7,0.8,0.8,1.3l0.4,0.9c0.3-2,0.6-4.1,0.7-6.2C67.3,90.1,66.8,89.6,66.1,89.2"/>
							<path class="st7" d="M65.9,108.1c-0.1-2.1,0.1-4.2,0.4-6.2c-0.9-0.7-1.9-1.3-3-1.7l-3.1-1.3c-0.7-0.3-1.3-0.6-1.9-1
								c-1.8-1.3-2.8-3.8-4.9-4.3c1.4,5.3,5.6,9.3,9.8,12.8C64,107.2,64.9,107.7,65.9,108.1"/>
							<path class="st7" d="M68.2,123.1c-1.1-1.3-2.5-2.4-4-3.3c-1.8-1-3.4-2.4-4.6-4.1c-0.8-1.2-1.1-2.7-1.8-3.9
								c-0.6-1.3-1.9-2.2-3.4-2.3c1,1.9,2,4.2,0.9,6c-0.6,0.8-1.3,1.4-2.1,2c-0.8,0.5-1.4,1.4-1.5,2.4c0,1,0.9,2,1.8,1.6
								c0.5-0.2,0.8-0.8,1.4-1.1c0.7-0.2,1.5,0,2.1,0.4c1.6,0.8,3.3,1.3,4.8,2.2c1.6,0.8,2.9,2.1,3.5,3.8c0.1,0.4,0.2,0.7,0.2,1
								C66.5,126.2,67.7,124.8,68.2,123.1"/>
							<path class="st7" d="M31.4,114.6c0.3,1.8,2.5,2.5,3.7,3.8c2.3,2.4,1.6,6.9,4.1,8.9c0.6,0.4,1.2,0.8,1.9,1
								c1.5,0.6,3,1.2,4.6,1.6c0.3-0.7,0.2-1.5-0.4-2.1c-0.5-0.5-1.1-1-1.7-1.4c-3-2.5-3.1-7.1-5.7-10c-0.3-0.4-0.7-0.7-1.1-0.9
								c-0.5-0.2-1-0.3-1.5-0.4L31.4,114.6"/>
							<path class="st7" d="M60.3,136.8c-0.3-0.1-0.6,0-0.9,0.1c-1.6,0.6-3.4,0.5-4.9-0.2c-0.1-1.2,1.2-2.1,1.5-3.2
								c0.2-0.9-0.2-1.9,0.2-2.7c0.3-0.5,0.8-1,1.3-1.3c0.6-0.3,1-0.7,1.4-1.2c0.3-0.5,0.2-1.3-0.4-1.6c-0.3-0.1-0.7-0.1-1,0
								c-3.1,0.8-5.5,3.3-6.2,6.4c-0.2,1.2-0.4,2.5-1.4,3.1c-0.4,0.2-0.9,0.3-1.4,0.3c-4.1,0.5-7.7,2.7-9.9,6.2h0.1
								c1.2,0.5,2.3,1.2,3.3,1.9c1.3-1.2,2.7-2.3,4.3-3c1.1-0.6,2.3-1.1,3.6-1.4c3.8-0.8,8,1.4,11.6,0c0.2-1.2-0.2-2.4-1-3.2
								c-0.1-0.1-0.2-0.2-0.4-0.3"/>
							<path class="st7" d="M61.6,142.5c-0.5,0.3-1,0.5-1.6,0.6c-1.1,0.1-2.2,0-3.3-0.3c-3.7-0.6-8,0.4-10.2,3.5
								c-0.2,0.3-0.4,0.6-0.7,1c1,0.5,2,1,3,1.4c0.8-0.6,1.8-1,2.8-1c1.1,0,2.2-0.1,3.3-0.3c1.4-0.5,2.8-1.2,4.1-2
								c1.3-0.6,2.7-0.9,4-1.5c0,0,0.1,0,0.1-0.1c0.3-0.8,0.5-1.6,0.7-2.5L61.6,142.5"/>
							<path class="st7" d="M33.6,133.3c-1.8-1.4-4.5-1.3-6.1-2.9c-0.3-0.4-0.7-0.8-1-1.3c-1.1-1.3-2.6-2.4-4.2-3.1
								c-0.3-0.1-0.6-0.4-0.5-0.7c0.1-0.1,0.1-0.2,0.2-0.2c1.2-0.5,2.5-0.3,3.5,0.4c1,0.8,2,1.4,3.1,2c1.4,0.4,2.8,0.3,4.1-0.1
								c0.6-0.1,1.2-0.3,1.7-0.7c0.5-0.5,0.5-1.2,0-1.6c0,0,0,0,0,0c-2.2,0.1-4.1-1.3-5.6-2.9c-0.2-0.2-0.4-0.4-0.6-0.6
								c-0.2-0.1-0.5-0.2-0.8-0.2c-1.8-0.1-3.5,0-5.2,0.5c0.2-1.3,1.6-2,2.8-2.5c1.2-0.5,2.6-1.3,2.7-2.6c0-0.4,0-0.8-0.1-1.1
								c-0.2-1.4-0.5-2.8-0.7-4.1c-0.1-1.2-0.6-2.3-1.4-3.1c-1.5,1.6-0.6,4.4-1.8,6.2c-0.8,1.2-2.4,1.7-3.5,2.8
								c-0.7,0.8-1.1,1.8-1.1,2.8c0.1,0.6,0.1,1.3-0.2,1.9c-0.2,0.3-0.5,0.5-0.9,0.7c-2,1-4.2,1.6-6.4,1.8c0.2,1.1,0.6,2.2,1.2,3.1
								c0.6,0,1.3,0,1.9-0.1l4.4-0.6c0.2-0.1,0.4-0.1,0.6,0c0.2,0.1,0.4,0.3,0.6,0.5c1.4,1.6,2.6,3.3,3.6,5.3c0.2,0.7,0.6,1.3,1,1.9
								c0.3,0.3,0.6,0.5,0.9,0.7c0.8,0.7,1.9,1.1,2.9,1.1c0.7-0.1,1.3-0.2,2-0.4c1.8-0.4,3.7,0,5.2,1.1
								C35.5,135.6,34.6,134.3,33.6,133.3"/>
							<path class="st7" d="M25.8,97.9c-1.3-1-3.1-0.9-4.5,0.1c2.8,1.1,4.3,4.1,6.3,6.3c2.4,2.4,5.2,4.4,8.4,5.7
								c1.7,0.7,3.3,1.7,4.8,2.9c2.9,2.7,3.9,7.3,7.3,9.4c0.2,0.2,0.5,0.3,0.8,0.3c0.6-0.1,0.9-0.8,0.8-1.4c-0.2-0.6-0.6-1.1-1-1.4
								c-1.3-1.1-2.2-2.7-2.3-4.4c0-0.4,0.1-0.8,0.3-1.1c0.4-0.3,0.9-0.5,1.3-0.5c1-0.1,2-0.3,2.9-0.8c0.9-0.5,1.5-1.4,1.6-2.4
								c-2.8-1.2-5.9-1-8.9-1.5c-3-0.4-6.2-1.6-7.6-4.2c-0.6-1.5-1.1-3-1.3-4.6c-0.7-3.2-2.4-6.2-5-8.2c-2.6-2.1-6-2.9-9.3-2.1
								c-0.2-2.4-0.5-5.1,0.9-7.1c1-1.2,2.1-2.2,3.5-2.9c1.4-0.7,2.5-1.8,3.3-3.1c0.8-1.4,0.5-3.1-0.7-4.1c-2.3,2.8-5.1,5.2-8.4,6.8
								c-0.5,0.5-1.4,0.5-1.9,0c-0.2-0.2-0.3-0.4-0.4-0.7c-0.9-2.3-1.6-4.6-2.1-7c-0.2-1.4-0.5-2.7-1-4c-0.8,1.2-1.7,2.3-2.5,3.5
								c0.2,3.7,1,7.3,2.5,10.7c0.8,1.9,1.8,3.8,1.9,5.9c0.1,0.9-0.3,1.8-0.9,2.4c-0.8,0.5-1.7,0.7-2.7,0.7
								c-0.6,0.1-1.2,0.3-1.8,0.6c-0.7,1.8-1.7,3.5-2.3,5.3c1.9,0.8,2.7,3.5,4.7,4.3c0.6,0.3,1.4,0.3,2.1,0.5c3.3,1.1,4.1,6,7.5,6.9
								c0.5-2.1,0.3-4.4-0.5-6.4c-0.9-2-2.6-3.6-4.7-4.1c-1-0.1-1.9-0.3-2.8-0.6c-0.9-0.4-1.4-1.4-1-2.3c0.4-0.8,1.5-0.8,2.3-0.8
								l9,0.1c0.4,0,0.8,0,1.2,0.2c0.5,0.3,0.9,0.7,1.2,1.1c1.1,1.7,2.1,3.5,2.9,5.4C27.9,100.8,27.2,98.9,25.8,97.9"/>
							<g>
								<g>
									<defs>
										<rect id="SVGID_11_" x="152.5" y="115.9" width="16.4" height="17.8"/>
									</defs>
									<clipPath id="SVGID_12_">
										<use xlink:href="#SVGID_11_"  style="overflow:visible;"/>
									</clipPath>
									<g class="st8">
										<path class="st9" d="M160.7,133.8c-0.4,0-0.8,0-1.2-0.1c-2.6-0.3-4.9-1.9-6.1-4.2c-1.3-2.7-1.1-6.3,0.5-9.9
											c0.1-0.2,0.3-0.2,0.4-0.2c0.2,0,0.2,0.2,0.2,0.4c0,0,0,0,0,0c-1.5,3.4-1.7,6.8-0.5,9.4c1.1,2.1,3.2,3.6,5.6,3.9
											c1.9,0.3,3.8-0.2,5.3-1.4c2.2-1.8,3.4-4.6,3.3-7.4c-0.3-5.6-3.1-7.2-3.1-7.2c-0.1-0.1-0.2-0.2-0.1-0.4c0,0,0,0,0,0
											c0.1-0.1,0.3-0.2,0.5-0.1c0.1,0.1,3.1,1.7,3.4,7.7c0.1,3.1-1.2,6-3.5,7.9C164,133.2,162.4,133.8,160.7,133.8"/>
										<path class="st9" d="M156.1,130.8c-0.1,0-0.2,0-0.2-0.1c-2.3-2.3-2.1-5.6-1.7-7.9c0.6-3.3,3.2-6.9,7-6.9l0,0
											c3.6,0,5.3,3.4,5.4,3.5c0.1,0.2,0,0.3-0.2,0.4c0,0,0,0,0,0c-0.2,0.1-0.4,0-0.5-0.2c0,0-1.6-3.2-4.8-3.2
											c-3.2,0-5.8,3.2-6.3,6.4c-0.4,2.2-0.6,5.3,1.5,7.4c0.1,0.1,0.1,0.3,0,0.4c0,0,0,0,0,0
											C156.3,130.8,156.2,130.8,156.1,130.8"/>
										<path class="st9" d="M166.6,128.5h-0.1c-0.2,0-0.3-0.2-0.2-0.4c0,0,0,0,0,0c1-2.4,1-5.1,0-7.5c-0.1-0.1,0-0.3,0.1-0.4
											c0,0,0,0,0,0c0.2-0.1,0.4,0,0.5,0.2c1.1,2.5,1.1,5.4,0,7.9C166.9,128.5,166.7,128.6,166.6,128.5"/>
										<path class="st9" d="M160.4,132.7c-1.4,0-2.7-0.5-3.8-1.3c-0.1-0.1-0.1-0.3,0-0.4c0,0,0,0,0,0c0.1-0.1,0.3-0.1,0.5,0
											c1.4,1.1,3.2,1.5,4.9,1c1.6-0.3,3-1.4,3.8-2.9c0.1-0.2,0.3-0.2,0.4-0.2c0.2,0,0.2,0.2,0.2,0.4c0,0,0,0,0,0
											c-0.8,1.7-2.4,2.9-4.3,3.2C161.6,132.7,161,132.7,160.4,132.7"/>
										<path class="st9" d="M160.5,131.6c-0.7,0-1.4-0.2-2.1-0.5c-2.4-1.3-3.7-4.1-3.2-6.8c0-0.2,0.2-0.3,0.4-0.3
											c0.2,0,0.3,0.1,0.3,0.3c0,0,0,0,0,0c-0.4,3.2,1.1,5.4,2.8,6.2c1.6,0.7,3.4,0.4,4.7-0.7c2.5-2,2.9-6,1.8-8.7
											c-0.6-1.7-2.1-2.9-3.9-3.1c-4-0.2-5.3,5.3-5.4,5.4c0,0.2-0.2,0.3-0.4,0.2c-0.2,0-0.3-0.2-0.3-0.3c0,0,0,0,0,0
											c0.1-0.2,1.5-6.1,6-5.9c2.1,0.1,3.8,1.5,4.5,3.5c1.2,2.9,0.7,7.2-2,9.3C163,131.1,161.8,131.6,160.5,131.6"/>
										<path class="st9" d="M160.6,130.5c-0.2,0-0.3-0.1-0.3-0.3c0-0.2,0.1-0.3,0.3-0.3c0,0,0,0,0,0c0.2,0,4.3-0.3,4.1-5.5
											c-0.1-2.1-0.6-3.6-1.7-4.4c-0.6-0.5-1.4-0.7-2.2-0.6c-2.2,0.2-3.2,2.9-3.5,4.5c-0.2,1.1-0.6,4.9,2.5,5.8
											c0.2,0,0.3,0.2,0.2,0.4c0,0,0,0,0,0c-0.1,0.2-0.3,0.2-0.4,0.2c-3.6-1.1-3.2-5.3-3-6.5c0.4-2.1,1.7-4.7,4.1-5
											c1-0.1,1.9,0.2,2.7,0.8c1.2,0.9,1.9,2.6,1.9,4.9C165.6,130.2,160.7,130.5,160.6,130.5L160.6,130.5"/>
										<path class="st9" d="M160.5,129.3c-0.2,0-0.3-0.1-0.3-0.3c0-0.2,0.1-0.3,0.3-0.3c0,0,0,0,0,0c0.1,0,2.8-0.2,2.8-3.6
											c0-1.9-0.5-3.3-1.3-3.9c-0.4-0.3-0.9-0.5-1.4-0.4c-1.3,0.6-2.2,1.9-2.3,3.3c0,0.2-0.2,0.3-0.4,0.3c-0.2,0-0.3-0.1-0.3-0.3
											c0,0,0,0,0,0c0.2-2.1,1.9-3.7,2.9-3.8c0.7-0.1,1.4,0.1,1.9,0.5c0.7,0.6,1.6,1.8,1.6,4.4
											C164,129.2,160.5,129.3,160.5,129.3L160.5,129.3"/>
										<path class="st9" d="M159.5,129.2c0,0-0.1,0-0.1,0c-2.2-1-1.8-3.9-1.8-4c0-0.2,0.2-0.3,0.4-0.3c0.2,0,0.3,0.2,0.3,0.3
											c0,0,0,0,0,0c0,0-0.3,2.6,1.4,3.4c0.1,0.1,0.2,0.2,0.2,0.4c0,0,0,0,0,0C159.7,129.1,159.6,129.2,159.5,129.2"/>
										<path class="st9" d="M161.2,128.2c-0.1,0-0.2,0-0.3-0.1c-0.1-0.1-0.1-0.3,0.1-0.4c0,0,0,0,0,0c0.7-0.5,1.1-1.3,1.1-2.2
											c0.2-1.1-0.1-2.2-0.7-3.2c-0.1-0.2-0.3-0.2-0.5-0.2c-0.6,0-1.4,1.6-1.6,2.6c-0.2,0.9,0,1.9,0.6,2.7c0.1,0.1,0.3,0.1,0.4,0
											c0.4-0.2,0.7-0.8,0.8-1.6c0.1-0.7,0-1.4-0.2-2.1c-0.5,0.8-0.6,1.9-0.3,2.8c0.1,0.1,0,0.3-0.1,0.4c0,0,0,0,0,0
											c-0.2,0.1-0.4,0-0.5-0.1c-0.5-1.1-0.3-2.5,0.4-3.5c0.2-0.2,0.4-0.3,0.6-0.2c0.6,0.2,0.7,1.1,0.8,1.6
											c0.1,1.2-0.1,2.7-1.2,3.2c-0.3,0.2-0.7,0.1-1-0.1c-0.8-0.5-1-2.1-0.9-3.2c0.1-0.6,0.9-3.1,2.3-3.1c0.4,0,0.8,0.2,1,0.4
											c0.8,1,1.1,2.3,0.9,3.6c-0.1,1.1-0.6,2-1.4,2.6C161.4,128.1,161.3,128.1,161.2,128.2"/>
									</g>
								</g>
							</g>
							<g>
								<g>
									<g>
										<defs>
											<rect id="SVGID_13_" x="152.5" y="115.9" width="16.4" height="17.8"/>
										</defs>
										<clipPath id="SVGID_14_">
											<use xlink:href="#SVGID_13_"  style="overflow:visible;"/>
										</clipPath>
										<g class="st10">
											<path class="st9" d="M160.7,133.8c-0.4,0-0.8,0-1.2-0.1c-2.6-0.3-4.9-1.9-6.1-4.2c-1.3-2.7-1.1-6.3,0.5-9.9
												c0.1-0.2,0.3-0.2,0.4-0.2c0.2,0,0.2,0.2,0.2,0.4c0,0,0,0,0,0c-1.5,3.4-1.7,6.8-0.5,9.4c1.1,2.1,3.2,3.6,5.6,3.9
												c1.9,0.3,3.8-0.2,5.3-1.4c2.2-1.8,3.4-4.6,3.3-7.4c-0.3-5.6-3.1-7.2-3.1-7.2c-0.1-0.1-0.2-0.2-0.1-0.4c0,0,0,0,0,0
												c0.1-0.1,0.3-0.2,0.5-0.1c0.1,0.1,3.1,1.7,3.4,7.7c0.1,3.1-1.2,6-3.5,7.9C164,133.2,162.4,133.8,160.7,133.8"/>
											<path class="st9" d="M156.1,130.8c-0.1,0-0.2,0-0.2-0.1c-2.3-2.3-2.1-5.6-1.7-7.9c0.6-3.3,3.2-6.9,7-6.9l0,0
												c3.6,0,5.3,3.4,5.4,3.5c0.1,0.2,0,0.3-0.2,0.4c0,0,0,0,0,0c-0.2,0.1-0.4,0-0.5-0.2c0,0-1.6-3.2-4.8-3.2
												c-3.2,0-5.8,3.2-6.3,6.4c-0.4,2.2-0.6,5.3,1.5,7.4c0.1,0.1,0.1,0.3,0,0.4c0,0,0,0,0,0
												C156.3,130.8,156.2,130.8,156.1,130.8"/>
											<path class="st9" d="M166.6,128.5h-0.1c-0.2,0-0.3-0.2-0.2-0.4c0,0,0,0,0,0c1-2.4,1-5.1,0-7.5c-0.1-0.1,0-0.3,0.1-0.4
												c0,0,0,0,0,0c0.2-0.1,0.4,0,0.5,0.2c1.1,2.5,1.1,5.4,0,7.9C166.9,128.5,166.7,128.6,166.6,128.5"/>
											<path class="st9" d="M160.4,132.7c-1.4,0-2.7-0.5-3.8-1.3c-0.1-0.1-0.1-0.3,0-0.4c0,0,0,0,0,0c0.1-0.1,0.3-0.1,0.5,0
												c1.4,1.1,3.2,1.5,4.9,1c1.6-0.3,3-1.4,3.8-2.9c0.1-0.2,0.3-0.2,0.4-0.2c0.2,0,0.2,0.2,0.2,0.4c0,0,0,0,0,0
												c-0.8,1.7-2.4,2.9-4.3,3.2C161.6,132.7,161,132.7,160.4,132.7"/>
											<path class="st9" d="M160.5,131.6c-0.7,0-1.4-0.2-2.1-0.5c-2.4-1.3-3.7-4.1-3.2-6.8c0-0.2,0.2-0.3,0.4-0.3
												c0.2,0,0.3,0.1,0.3,0.3c0,0,0,0,0,0c-0.4,3.2,1.1,5.4,2.8,6.2c1.6,0.7,3.4,0.4,4.7-0.7c2.5-2,2.9-6,1.8-8.7
												c-0.6-1.7-2.1-2.9-3.9-3.1c-4-0.2-5.3,5.3-5.4,5.4c0,0.2-0.2,0.3-0.4,0.2c-0.2,0-0.3-0.2-0.3-0.3c0,0,0,0,0,0
												c0.1-0.2,1.5-6.1,6-5.9c2.1,0.1,3.8,1.5,4.5,3.5c1.2,2.9,0.7,7.2-2,9.3C163,131.1,161.8,131.6,160.5,131.6"/>
											<path class="st9" d="M160.6,130.5c-0.2,0-0.3-0.1-0.3-0.3c0-0.2,0.1-0.3,0.3-0.3c0,0,0,0,0,0c0.2,0,4.3-0.3,4.1-5.5
												c-0.1-2.1-0.6-3.6-1.7-4.4c-0.6-0.5-1.4-0.7-2.2-0.6c-2.2,0.2-3.2,2.9-3.5,4.5c-0.2,1.1-0.6,4.9,2.5,5.8
												c0.2,0,0.3,0.2,0.2,0.4c0,0,0,0,0,0c-0.1,0.2-0.3,0.2-0.4,0.2c-3.6-1.1-3.2-5.3-3-6.5c0.4-2.1,1.7-4.7,4.1-5
												c1-0.1,1.9,0.2,2.7,0.8c1.2,0.9,1.9,2.6,1.9,4.9C165.6,130.2,160.7,130.5,160.6,130.5L160.6,130.5"/>
											<path class="st9" d="M160.5,129.3c-0.2,0-0.3-0.1-0.3-0.3c0-0.2,0.1-0.3,0.3-0.3c0,0,0,0,0,0c0.1,0,2.8-0.2,2.8-3.6
												c0-1.9-0.5-3.3-1.3-3.9c-0.4-0.3-0.9-0.5-1.4-0.4c-1.3,0.6-2.2,1.9-2.3,3.3c0,0.2-0.2,0.3-0.4,0.3
												c-0.2,0-0.3-0.1-0.3-0.3c0,0,0,0,0,0c0.2-2.1,1.9-3.7,2.9-3.8c0.7-0.1,1.4,0.1,1.9,0.5c0.7,0.6,1.6,1.8,1.6,4.4
												C164,129.2,160.5,129.3,160.5,129.3L160.5,129.3"/>
											<path class="st9" d="M159.5,129.2c0,0-0.1,0-0.1,0c-2.2-1-1.8-3.9-1.8-4c0-0.2,0.2-0.3,0.4-0.3c0.2,0,0.3,0.2,0.3,0.3
												c0,0,0,0,0,0c0,0-0.3,2.6,1.4,3.4c0.1,0.1,0.2,0.2,0.2,0.4c0,0,0,0,0,0C159.7,129.1,159.6,129.2,159.5,129.2"/>
											<path class="st9" d="M161.2,128.2c-0.1,0-0.2,0-0.3-0.1c-0.1-0.1-0.1-0.3,0.1-0.4c0,0,0,0,0,0c0.7-0.5,1.1-1.3,1.1-2.2
												c0.2-1.1-0.1-2.2-0.7-3.2c-0.1-0.2-0.3-0.2-0.5-0.2c-0.6,0-1.4,1.6-1.6,2.6c-0.2,0.9,0,1.9,0.6,2.7
												c0.1,0.1,0.3,0.1,0.4,0c0.4-0.2,0.7-0.8,0.8-1.6c0.1-0.7,0-1.4-0.2-2.1c-0.5,0.8-0.6,1.9-0.3,2.8c0.1,0.1,0,0.3-0.1,0.4
												c0,0,0,0,0,0c-0.2,0.1-0.4,0-0.5-0.1c-0.5-1.1-0.3-2.5,0.4-3.5c0.2-0.2,0.4-0.3,0.6-0.2c0.6,0.2,0.7,1.1,0.8,1.6
												c0.1,1.2-0.1,2.7-1.2,3.2c-0.3,0.2-0.7,0.1-1-0.1c-0.8-0.5-1-2.1-0.9-3.2c0.1-0.6,0.9-3.1,2.3-3.1c0.4,0,0.8,0.2,1,0.4
												c0.8,1,1.1,2.3,0.9,3.6c-0.1,1.1-0.6,2-1.4,2.6C161.4,128.1,161.3,128.1,161.2,128.2"/>
										</g>
									</g>
								</g>
							</g>
							<g>
								<g>
									<defs>
										<rect id="SVGID_15_" x="183.9" y="77.6" width="14.1" height="16.8"/>
									</defs>
									<clipPath id="SVGID_16_">
										<use xlink:href="#SVGID_15_"  style="overflow:visible;"/>
									</clipPath>
									<g class="st11">
										<path class="st4" d="M185.8,81.5c0,0-0.1,0-0.1,0c-0.1-0.1-0.2-0.2-0.1-0.3c0,0,0,0,0,0c1-1.8,2.8-3,4.8-3.4
											c1.4-0.2,2.8,0.1,4,0.9c0.1,0.1,0.1,0.2,0.1,0.3c0,0,0,0,0,0c-0.1,0.1-0.3,0.2-0.4,0.1c-1.1-0.7-2.3-0.9-3.5-0.8
											c-1.8,0.4-3.4,1.5-4.4,3.1C186,81.4,185.9,81.5,185.8,81.5"/>
										<path class="st4" d="M190.9,94.4c-0.3,0-0.7,0-1-0.1c-2.3-0.3-4.2-1.7-5.2-3.8c-1.1-2.8-0.9-6,0.4-8.7
											c0.1-0.1,0.2-0.2,0.4-0.1c0.1,0,0.2,0.2,0.2,0.3c-1.3,2.6-1.4,5.6-0.4,8.3c0.9,1.9,2.7,3.2,4.8,3.4
											c1.6,0.3,3.3-0.2,4.6-1.2c1.9-1.6,3-4.1,2.8-6.6c-0.2-5-2.6-6.4-2.7-6.4c-0.1-0.1-0.2-0.2-0.1-0.3c0,0,0,0,0,0
											c0.1-0.1,0.3-0.2,0.4-0.1c0.1,0.1,2.7,1.5,3,6.8c0.1,2.7-1,5.3-3,7C193.8,93.9,192.4,94.4,190.9,94.4"/>
										<path class="st4" d="M186.9,91.8c-0.1,0-0.2,0-0.2-0.1c-2-2.1-1.8-4.9-1.4-7c0.5-2.9,2.8-6.1,6-6.1s4.6,3,4.6,3.1
											c0.1,0.1,0,0.3-0.1,0.3c0,0,0,0,0,0c-0.1,0.1-0.3,0-0.4-0.1c0,0-1.4-2.8-4.1-2.8s-5,2.9-5.4,5.6c-0.3,1.9-0.6,4.7,1.3,6.5
											c0.1,0.1,0.1,0.2,0,0.3c0,0,0,0,0,0C187.1,91.8,187,91.8,186.9,91.8"/>
										<path class="st4" d="M196,89.8h-0.1c-0.1,0-0.2-0.2-0.2-0.3c0,0,0,0,0,0c0.9-2.1,0.9-4.5,0-6.6c-0.1-0.1,0-0.3,0.1-0.3
											c0,0,0,0,0,0c0.1-0.1,0.3,0,0.4,0.1c0.9,2.2,0.9,4.8,0,7C196.2,89.7,196.1,89.8,196,89.8"/>
										<path class="st4" d="M190.7,93.5c-1.2,0-2.4-0.4-3.3-1.2c-0.1-0.1-0.1-0.3,0-0.4c0,0,0,0,0,0c0.1-0.1,0.3-0.1,0.4,0
											c1.2,1,2.7,1.3,4.2,0.9c1.4-0.3,2.6-1.2,3.3-2.5c0.1-0.1,0.2-0.2,0.4-0.2c0.1,0,0.2,0.2,0.2,0.3c0,0,0,0,0,0
											c-0.7,1.5-2.1,2.5-3.7,2.8C191.7,93.4,191.2,93.5,190.7,93.5"/>
										<path class="st4" d="M190.7,92.5c-0.6,0-1.2-0.1-1.8-0.4c-2.1-1.2-3.2-3.6-2.7-6c0-0.2,0.2-0.3,0.3-0.2
											c0.1,0,0.3,0.1,0.2,0.3c0,0,0,0,0,0c-0.4,2.8,0.9,4.8,2.4,5.5c1.4,0.6,3,0.4,4.1-0.6c2.2-1.8,2.5-5.3,1.6-7.7
											c-0.4-1.5-1.8-2.6-3.3-2.8c-3.5-0.1-4.6,4.7-4.6,4.8c0,0.1-0.2,0.2-0.3,0.2c-0.1,0-0.2-0.2-0.2-0.3c0,0,0,0,0,0
											c0.1-0.2,1.3-5.4,5.2-5.2c1.8,0.1,3.3,1.4,3.9,3.1c1,2.6,0.6,6.4-1.7,8.2C192.9,92.1,191.8,92.5,190.7,92.5"/>
										<path class="st4" d="M190.8,91.6c-0.1,0-0.3-0.1-0.3-0.2c0-0.2,0.1-0.3,0.3-0.3c0,0,0,0,0,0c0.2,0,3.7-0.3,3.5-4.8
											c-0.1-1.9-0.6-3.2-1.5-3.9c-0.5-0.4-1.2-0.6-1.9-0.5c-1.9,0.2-2.8,2.6-3,3.9c-0.2,1-0.5,4.3,2.2,5.2
											c0.1,0,0.2,0.2,0.2,0.3c0,0,0,0,0,0c-0.1,0.1-0.2,0.2-0.4,0.2c-3.1-1-2.8-4.7-2.6-5.7c0.3-1.9,1.5-4.1,3.5-4.4
											c0.8-0.1,1.7,0.2,2.3,0.7c1,0.8,1.6,2.2,1.7,4.3C195.1,91.3,190.9,91.5,190.8,91.6L190.8,91.6"/>
										<path class="st4" d="M190.7,90.5c-0.1,0-0.3-0.1-0.3-0.3c0-0.2,0.1-0.3,0.3-0.3c0.1,0,2.4-0.2,2.4-3.2
											c0-1.7-0.4-2.9-1.2-3.5c-0.3-0.3-0.8-0.4-1.2-0.3c-1.1,0.6-1.9,1.7-2,2.9c0,0.1-0.2,0.3-0.3,0.2c-0.1,0-0.3-0.1-0.3-0.3
											c0,0,0,0,0,0c0.2-1.9,1.6-3.3,2.5-3.4c0.6-0.1,1.2,0.1,1.7,0.5c0.6,0.5,1.3,1.6,1.3,3.9C193.7,90.3,190.8,90.5,190.7,90.5
											L190.7,90.5"/>
										<path class="st4" d="M189.9,90.3c0,0-0.1,0-0.1,0c-1.9-0.8-1.6-3.4-1.5-3.5c0-0.2,0.2-0.3,0.3-0.2c0.1,0,0.3,0.1,0.2,0.3
											c0,0-0.3,2.3,1.2,3c0.1,0.1,0.2,0.2,0.1,0.3c0,0,0,0,0,0C190.1,90.3,190,90.3,189.9,90.3"/>
										<path class="st4" d="M191.3,89.5c-0.1,0-0.2,0-0.2-0.1c-0.1-0.1-0.1-0.3,0-0.3c0,0,0,0,0,0c0.6-0.5,0.9-1.2,1-2
											c0.1-1-0.1-2-0.6-2.8c-0.1-0.1-0.3-0.2-0.5-0.2c-0.6,0-1.2,1.4-1.4,2.3c-0.2,0.8,0,1.7,0.5,2.4c0.1,0.1,0.2,0.1,0.3,0
											c0.4-0.3,0.7-0.9,0.7-1.4c0.1-0.6,0-1.3-0.2-1.8c-0.5,0.7-0.5,1.6-0.2,2.5c0.1,0.1,0,0.3-0.1,0.3c0,0,0,0,0,0
											c-0.1,0.1-0.3,0-0.4-0.1c-0.4-1-0.3-2.2,0.4-3.1c0.1-0.2,0.4-0.2,0.6-0.2c0.5,0.1,0.6,1,0.6,1.5c0.1,1-0.1,2.4-1,2.8
											c-0.3,0.1-0.7,0.1-0.9-0.1c-0.7-0.8-1-1.9-0.7-2.9c0.1-0.5,0.8-2.7,2-2.7c0.3,0,0.7,0.1,0.9,0.4c0.7,0.9,0.9,2.1,0.8,3.2
											c-0.1,0.9-0.5,1.8-1.2,2.3C191.4,89.4,191.4,89.4,191.3,89.5"/>
									</g>
								</g>
							</g>
							<g>
								<g>
									<g>
										<defs>
											<rect id="SVGID_17_" x="183.9" y="77.6" width="14.1" height="16.8"/>
										</defs>
										<clipPath id="SVGID_18_">
											<use xlink:href="#SVGID_17_"  style="overflow:visible;"/>
										</clipPath>
										<g class="st12">
											<path class="st4" d="M185.8,81.5c0,0-0.1,0-0.1,0c-0.1-0.1-0.2-0.2-0.1-0.3c0,0,0,0,0,0c1-1.8,2.8-3,4.8-3.4
												c1.4-0.2,2.8,0.1,4,0.9c0.1,0.1,0.1,0.2,0.1,0.3c0,0,0,0,0,0c-0.1,0.1-0.3,0.2-0.4,0.1c-1.1-0.7-2.3-0.9-3.5-0.8
												c-1.8,0.4-3.4,1.5-4.4,3.1C186,81.4,185.9,81.5,185.8,81.5"/>
											<path class="st4" d="M190.9,94.4c-0.3,0-0.7,0-1-0.1c-2.3-0.3-4.2-1.7-5.2-3.8c-1.1-2.8-0.9-6,0.4-8.7
												c0.1-0.1,0.2-0.2,0.4-0.1c0.1,0,0.2,0.2,0.2,0.3c-1.3,2.6-1.4,5.6-0.4,8.3c0.9,1.9,2.7,3.2,4.8,3.4
												c1.6,0.3,3.3-0.2,4.6-1.2c1.9-1.6,3-4.1,2.8-6.6c-0.2-5-2.6-6.4-2.7-6.4c-0.1-0.1-0.2-0.2-0.1-0.3c0,0,0,0,0,0
												c0.1-0.1,0.3-0.2,0.4-0.1c0.1,0.1,2.7,1.5,3,6.8c0.1,2.7-1,5.3-3,7C193.8,93.9,192.4,94.4,190.9,94.4"/>
											<path class="st4" d="M186.9,91.8c-0.1,0-0.2,0-0.2-0.1c-2-2.1-1.8-4.9-1.4-7c0.5-2.9,2.8-6.1,6-6.1s4.6,3,4.6,3.1
												c0.1,0.1,0,0.3-0.1,0.3c0,0,0,0,0,0c-0.1,0.1-0.3,0-0.4-0.1c0,0-1.4-2.8-4.1-2.8s-5,2.9-5.4,5.6
												c-0.3,1.9-0.6,4.7,1.3,6.5c0.1,0.1,0.1,0.2,0,0.3c0,0,0,0,0,0C187.1,91.8,187,91.8,186.9,91.8"/>
											<path class="st4" d="M196,89.8h-0.1c-0.1,0-0.2-0.2-0.2-0.3c0,0,0,0,0,0c0.9-2.1,0.9-4.5,0-6.6c-0.1-0.1,0-0.3,0.1-0.3
												c0,0,0,0,0,0c0.1-0.1,0.3,0,0.4,0.1c0.9,2.2,0.9,4.8,0,7C196.2,89.7,196.1,89.8,196,89.8"/>
											<path class="st4" d="M190.7,93.5c-1.2,0-2.4-0.4-3.3-1.2c-0.1-0.1-0.1-0.3,0-0.4c0,0,0,0,0,0c0.1-0.1,0.3-0.1,0.4,0
												c1.2,1,2.7,1.3,4.2,0.9c1.4-0.3,2.6-1.2,3.3-2.5c0.1-0.1,0.2-0.2,0.4-0.2c0.1,0,0.2,0.2,0.2,0.3c0,0,0,0,0,0
												c-0.7,1.5-2.1,2.5-3.7,2.8C191.7,93.4,191.2,93.5,190.7,93.5"/>
											<path class="st4" d="M190.7,92.5c-0.6,0-1.2-0.1-1.8-0.4c-2.1-1.2-3.2-3.6-2.7-6c0-0.2,0.2-0.3,0.3-0.2
												c0.1,0,0.3,0.1,0.2,0.3c0,0,0,0,0,0c-0.4,2.8,0.9,4.8,2.4,5.5c1.4,0.6,3,0.4,4.1-0.6c2.2-1.8,2.5-5.3,1.6-7.7
												c-0.4-1.5-1.8-2.6-3.3-2.8c-3.5-0.1-4.6,4.7-4.6,4.8c0,0.1-0.2,0.2-0.3,0.2c-0.1,0-0.2-0.2-0.2-0.3c0,0,0,0,0,0
												c0.1-0.2,1.3-5.4,5.2-5.2c1.8,0.1,3.3,1.4,3.9,3.1c1,2.6,0.6,6.4-1.7,8.2C192.9,92.1,191.8,92.5,190.7,92.5"/>
											<path class="st4" d="M190.8,91.6c-0.1,0-0.3-0.1-0.3-0.2c0-0.2,0.1-0.3,0.3-0.3c0,0,0,0,0,0c0.2,0,3.7-0.3,3.5-4.8
												c-0.1-1.9-0.6-3.2-1.5-3.9c-0.5-0.4-1.2-0.6-1.9-0.5c-1.9,0.2-2.8,2.6-3,3.9c-0.2,1-0.5,4.3,2.2,5.2
												c0.1,0,0.2,0.2,0.2,0.3c0,0,0,0,0,0c-0.1,0.1-0.2,0.2-0.4,0.2c-3.1-1-2.8-4.7-2.6-5.7c0.3-1.9,1.5-4.1,3.5-4.4
												c0.8-0.1,1.7,0.2,2.3,0.7c1,0.8,1.6,2.2,1.7,4.3C195.1,91.3,190.9,91.5,190.8,91.6L190.8,91.6"/>
											<path class="st4" d="M190.7,90.5c-0.1,0-0.3-0.1-0.3-0.3c0-0.2,0.1-0.3,0.3-0.3c0.1,0,2.4-0.2,2.4-3.2
												c0-1.7-0.4-2.9-1.2-3.5c-0.3-0.3-0.8-0.4-1.2-0.3c-1.1,0.6-1.9,1.7-2,2.9c0,0.1-0.2,0.3-0.3,0.2c-0.1,0-0.3-0.1-0.3-0.3
												c0,0,0,0,0,0c0.2-1.9,1.6-3.3,2.5-3.4c0.6-0.1,1.2,0.1,1.7,0.5c0.6,0.5,1.3,1.6,1.3,3.9
												C193.7,90.3,190.8,90.5,190.7,90.5L190.7,90.5"/>
											<path class="st4" d="M189.9,90.3c0,0-0.1,0-0.1,0c-1.9-0.8-1.6-3.4-1.5-3.5c0-0.2,0.2-0.3,0.3-0.2c0.1,0,0.3,0.1,0.2,0.3
												c0,0-0.3,2.3,1.2,3c0.1,0.1,0.2,0.2,0.1,0.3c0,0,0,0,0,0C190.1,90.3,190,90.3,189.9,90.3"/>
											<path class="st4" d="M191.3,89.5c-0.1,0-0.2,0-0.2-0.1c-0.1-0.1-0.1-0.3,0-0.3c0,0,0,0,0,0c0.6-0.5,0.9-1.2,1-2
												c0.1-1-0.1-2-0.6-2.8c-0.1-0.1-0.3-0.2-0.5-0.2c-0.6,0-1.2,1.4-1.4,2.3c-0.2,0.8,0,1.7,0.5,2.4c0.1,0.1,0.2,0.1,0.3,0
												c0.4-0.3,0.7-0.9,0.7-1.4c0.1-0.6,0-1.3-0.2-1.8c-0.5,0.7-0.5,1.6-0.2,2.5c0.1,0.1,0,0.3-0.1,0.3c0,0,0,0,0,0
												c-0.1,0.1-0.3,0-0.4-0.1c-0.4-1-0.3-2.2,0.4-3.1c0.1-0.2,0.4-0.2,0.6-0.2c0.5,0.1,0.6,1,0.6,1.5c0.1,1-0.1,2.4-1,2.8
												c-0.3,0.1-0.7,0.1-0.9-0.1c-0.7-0.8-1-1.9-0.7-2.9c0.1-0.5,0.8-2.7,2-2.7c0.3,0,0.7,0.1,0.9,0.4c0.7,0.9,0.9,2.1,0.8,3.2
												c-0.1,0.9-0.5,1.8-1.2,2.3C191.4,89.4,191.4,89.4,191.3,89.5"/>
										</g>
									</g>
								</g>
							</g>
						</g>
					</g>
					<path class="st6" d="M175.8,98.5h-11.4c-1.9,0-3.9-0.1-5.8-0.4c-2-0.2-4-0.8-5.8-1.7c-1.7-0.8-3.3-2.1-4.4-3.6
						c-1.2-1.9-1.9-4.1-1.7-6.3c0-4,1-7.1,3-9.4c2.1-2.3,5-3.5,8.1-3.4c1.5,0,3,0.3,4.4,0.8c1.3,0.5,2.5,1.4,3.4,2.4
						c1,1.1,1.7,2.4,2.2,3.8c0.5,1.6,0.8,3.2,0.8,4.9v8h7.3L175.8,98.5z M163.9,93.6c0-2.1,0-4.1,0-6c0-1.7-0.2-3.3-0.6-4.9
						c-0.3-1.3-1-2.4-2-3.3c-1.2-0.9-2.6-1.3-4.1-1.2c-1.7-0.1-3.3,0.7-4.3,2.1c-1.1,1.6-1.7,3.5-1.6,5.5c-0.1,1.5,0.3,3,1,4.3
						c0.6,1.1,1.5,1.9,2.6,2.4c1.3,0.6,2.6,0.9,4,1C160.4,93.5,162.1,93.6,163.9,93.6z M154.4,69.7c-0.8,0-1.5-0.3-2-0.8
						c-1.1-1.1-1.1-2.8-0.1-3.9c0,0,0.1-0.1,0.1-0.1c0.5-0.5,1.3-0.8,2-0.8c1.6,0,2.8,1.3,2.8,2.8c0,0.7-0.3,1.4-0.8,2
						C155.8,69.4,155.1,69.7,154.4,69.7z M161.7,69.7c-0.8,0-1.5-0.3-2.1-0.8c-1.1-1.1-1.1-2.8-0.1-3.9c0,0,0.1-0.1,0.1-0.1
						c0.5-0.5,1.3-0.8,2.1-0.8c0.7,0,1.4,0.3,1.9,0.8c1.1,1.1,1.1,2.8,0.1,3.9c0,0-0.1,0.1-0.1,0.1
						C163.1,69.4,162.4,69.7,161.7,69.7L161.7,69.7z M208.4,93.6v4.9c-2,0.1-3.9-0.2-5.8-0.7c-1.5-0.5-2.8-1.4-3.8-2.7
						c-1.9,2.4-4.8,3.7-7.9,3.6c-1.6,0-3.2-0.3-4.6-1c-1.4-0.6-2.6-1.6-3.6-2.7c-1.8,2.4-4.7,3.6-8.8,3.6c-0.2,0-0.3,0-0.5,0h-0.4
						v-4.9h0.8c1,0,2.1-0.1,3.1-0.4c0.7-0.2,1.4-0.6,1.8-1.2c0.5-0.6,0.8-1.4,0.9-2.2c0.1-1.1,0.2-2.1,0.2-3.2c0-4,1-7.1,3-9.4
						c2.1-2.3,5-3.5,8.1-3.4c1.5,0,3,0.3,4.3,0.9c1.3,0.6,2.4,1.4,3.3,2.5c1,1.2,1.7,2.5,2.2,4c0.5,1.7,0.8,3.5,0.8,5.4
						c0,1.1,0.1,2.1,0.2,3.2c0.1,0.8,0.4,1.5,0.9,2.2c0.5,0.6,1.1,1,1.8,1.2c1,0.3,2,0.4,3.1,0.4L208.4,93.6z M191.3,93.9
						c1.6,0.1,3.2-0.7,4.1-2.1c1-1.6,1.5-3.4,1.4-5.2c0.2-2.1-0.4-4.2-1.6-6c-1.2-1.4-3-2.1-4.8-2c-1.6-0.1-3.2,0.7-4.2,1.9
						c-1.1,1.5-1.7,3.4-1.6,5.3c-0.1,2.1,0.5,4.2,1.7,5.9C187.6,93.1,189.4,94,191.3,93.9L191.3,93.9z M206.1,93.6h6.1V79.3h1.6
						c1-0.1,2,0.2,2.7,0.9c0.6,0.9,0.8,2,0.7,3v1c0.6-1.4,1.2-2.7,2.1-3.9C220,79.1,221,78,222,77c1-1,2.2-1.8,3.5-2.4
						c1.3-0.6,2.7-0.9,4.1-0.9c2.6-0.1,5.2,0.5,7.5,1.7c2,1.1,3.6,2.6,4.9,4.4c1.3,1.9,2.2,4.1,2.6,6.4c0.5,2.5,0.8,5,0.8,7.5h4.9
						v4.9h-44.3V93.6z M229.9,79.1c-1.5,0-3,0.4-4.3,1.2c-1.4,0.9-2.6,2-3.6,3.3c-1.1,1.4-2,3-2.7,4.6c-0.8,1.7-1.3,3.5-1.8,5.3
						h22.9c-0.1-1.3-0.3-2.8-0.5-4.4c-0.3-1.6-0.8-3.2-1.5-4.8c-0.7-1.5-1.8-2.8-3.1-3.8C233.7,79.6,231.8,79,229.9,79.1L229.9,79.1
						z M262.1,87.2c0,1.4-0.1,2.7-0.4,4.1c-0.2,1.2-0.7,2.4-1.3,3.5c-0.6,1-1.5,1.9-2.5,2.5c-1.2,0.7-2.6,1.1-4,1.2h-5v-4.9h3.7
						c2.2,0.3,4.1-1.2,4.4-3.4c0-0.3,0-0.7,0-1V78.6h1.6c1-0.1,2,0.2,2.7,0.9c0.6,0.9,0.8,1.9,0.7,3V87.2z M255.8,107.6
						c-0.8,0-1.5-0.3-2-0.8c-1.1-1.1-1.1-2.8-0.1-3.9c0,0,0.1-0.1,0.1-0.1c0.5-0.5,1.3-0.8,2-0.8c1.5-0.1,2.9,1.1,3,2.6
						s-1.1,2.9-2.6,3C256,107.7,255.9,107.7,255.8,107.6L255.8,107.6z"/>
					<text transform="matrix(1 0 0 1 149.6089 134.0238)" class="st13 st14 st15">basma</text>
					<path class="st13" d="M225.1,56.5h-5.9c-1,0-2-0.1-3-0.2c-1-0.1-2-0.4-3-0.9c-0.9-0.4-1.7-1.1-2.3-1.9c-0.7-1-1-2.1-0.9-3.3
						c-0.1-1.8,0.4-3.5,1.5-4.9c1.1-1.2,2.6-1.8,4.2-1.8c0.8,0,1.5,0.1,2.3,0.4c0.7,0.3,1.3,0.7,1.8,1.2c0.5,0.6,0.9,1.2,1.1,1.9
						c0.3,0.8,0.4,1.7,0.4,2.5V54h3.8V56.5z M218.9,53.9c0-1.1,0-2.1,0-3.1c0-0.9-0.1-1.7-0.3-2.5c-0.2-0.7-0.5-1.3-1-1.7
						c-0.6-0.5-1.4-0.7-2.1-0.6c-0.9,0-1.7,0.3-2.2,1c-0.6,0.8-0.9,1.8-0.8,2.8c0,0.8,0.1,1.5,0.5,2.2c0.3,0.5,0.8,1,1.4,1.2
						c0.7,0.3,1.3,0.5,2.1,0.5C217.1,53.9,218,53.9,218.9,53.9z M214,41.6c-0.4,0-0.8-0.1-1-0.4c-0.3-0.3-0.4-0.6-0.4-1
						c0-0.4,0.2-0.8,0.4-1c0.3-0.3,0.6-0.4,1-0.4c0.4,0,0.8,0.1,1,0.4c0.3,0.3,0.4,0.6,0.4,1c0,0.4-0.1,0.8-0.4,1
						C214.8,41.5,214.4,41.6,214,41.6L214,41.6z M217.8,41.6c-0.4,0-0.8-0.2-1-0.4c-0.3-0.3-0.4-0.6-0.4-1c0-0.4,0.2-0.8,0.4-1
						c0.3-0.3,0.6-0.4,1-0.4c0.4,0,0.8,0.1,1,0.4c0.3,0.3,0.4,0.6,0.4,1c0,0.4-0.2,0.8-0.4,1C218.6,41.5,218.2,41.6,217.8,41.6
						L217.8,41.6z M231,50.6c0,0.7-0.1,1.4-0.2,2.1c-0.1,0.6-0.3,1.3-0.7,1.8c-0.3,0.5-0.8,1-1.3,1.3c-0.6,0.4-1.3,0.6-2.1,0.6h-2.6
						v-2.5h1.9c0.6,0,1.2-0.1,1.6-0.5c0.4-0.5,0.7-1.1,0.6-1.8v-5.5h0.9c0.5-0.1,1,0.1,1.4,0.5c0.3,0.5,0.4,1,0.4,1.6L231,50.6z
						 M227.7,61.2c-0.4,0-0.8-0.2-1-0.4c-0.3-0.3-0.4-0.6-0.4-1c0-0.4,0.1-0.8,0.4-1c0.3-0.3,0.6-0.4,1-0.4c0.8,0,1.4,0.6,1.5,1.4
						c0,0,0,0,0,0C229.1,60.5,228.5,61.2,227.7,61.2C227.7,61.2,227.7,61.2,227.7,61.2L227.7,61.2z M235.9,56.4
						c-0.4,0-0.9-0.1-1.2-0.4c-0.3-0.4-0.5-0.9-0.5-1.4V38.3h1.2c0.3,0,0.7,0.1,0.9,0.4c0.3,0.2,0.4,0.5,0.4,0.9v17L235.9,56.4z
						 M253.7,56.4h-3c-0.1,0.7-0.4,1.4-0.8,2.1c-0.4,0.7-0.9,1.2-1.5,1.7c-0.7,0.5-1.4,0.9-2.2,1.1c-0.9,0.3-1.8,0.4-2.7,0.4
						c-0.6,0-1.2-0.1-1.8-0.3c-0.5-0.1-0.8-0.6-0.7-1.1v-1.2c0.2,0,0.5,0.1,0.7,0.1c0.3,0,0.5,0,0.8,0c0.6,0,1.3-0.1,1.9-0.2
						c0.6-0.1,1.2-0.3,1.7-0.5c0.5-0.2,0.9-0.5,1.3-0.9c0.3-0.3,0.6-0.8,0.7-1.2c-1,0-2-0.1-2.9-0.3c-1-0.2-1.9-0.5-2.8-0.9
						c-0.8-0.4-1.5-1.1-2.1-1.9c-0.6-0.9-0.9-2-0.8-3.2c-0.1-1.8,0.4-3.5,1.5-4.9c1.1-1.2,2.6-1.8,4.2-1.8c0.8,0,1.5,0.1,2.3,0.4
						c0.7,0.3,1.3,0.7,1.8,1.2c0.5,0.6,0.9,1.2,1.1,1.9c0.3,0.8,0.4,1.7,0.4,2.5v3.6c0,0.2,0,0.3,0,0.5c0,0,0,0.1,0,0.1h2.9
						L253.7,56.4z M242,49.8c0,0.8,0.1,1.5,0.5,2.2c0.3,0.5,0.8,1,1.4,1.2c0.7,0.3,1.3,0.5,2.1,0.5c0.8,0.1,1.6,0.1,2.6,0.1
						c0-1.1,0-2.1,0-3.1c0-0.9-0.1-1.7-0.3-2.5c-0.2-0.7-0.5-1.2-1-1.7c-0.6-0.5-1.4-0.7-2.1-0.6c-0.9,0-1.7,0.4-2.2,1
						C242.2,47.8,241.9,48.8,242,49.8L242,49.8z M259.8,50.6c0,0.7-0.1,1.4-0.2,2.1c-0.1,0.6-0.4,1.2-0.7,1.8
						c-0.3,0.5-0.8,1-1.3,1.3c-0.6,0.4-1.3,0.6-2.1,0.6h-2.6v-2.5h1.9c1.1,0.1,2.2-0.7,2.3-1.8c0-0.2,0-0.3,0-0.5v-5.5h0.8
						c0.5-0.1,1,0.1,1.4,0.5c0.3,0.5,0.4,1,0.4,1.6L259.8,50.6z M256.5,61.2c-0.4,0-0.8-0.2-1-0.4c-0.3-0.3-0.4-0.6-0.4-1
						c0-0.4,0.2-0.8,0.4-1c0.3-0.3,0.6-0.4,1-0.4c0.4,0,0.8,0.1,1,0.4c0.3,0.3,0.4,0.6,0.4,1c0,0.4-0.1,0.8-0.4,1
						C257.2,61.1,256.9,61.2,256.5,61.2L256.5,61.2z"/>
				</g>
			</g>
		</g>
	</g>
	<g>
		<defs>
			<rect id="SVGID_19_" x="183.8" y="-111.3" width="539.4" height="379.7"/>
		</defs>
		<clipPath id="SVGID_20_">
			<use xlink:href="#SVGID_19_"  style="overflow:visible;"/>
		</clipPath>
		<g class="st16">
			<g>
				<defs>
					<rect id="SVGID_21_" x="183.8" y="-111.3" width="539.4" height="379.7"/>
				</defs>
				<clipPath id="SVGID_22_">
					<use xlink:href="#SVGID_21_"  style="overflow:visible;"/>
				</clipPath>
				<g class="st17">
					<path class="st18" d="M615.5,43.8L615.5,43.8z"/>
					<path class="st19" d="M566.9,140.7c11.2,0,22.1-3.8,30.8-10.9l-31.7-31.5c-0.9-0.9-1.7-1.9-2.4-2.9l-31.3,31.1
						C541.5,135.6,553.9,140.8,566.9,140.7"/>
					<path class="st20" d="M559.9,43.8h-38.3c-2,0-3.5,1.6-3.5,3.5l0,0v44.8l0,0c0,12.9,5.1,25.3,14.3,34.4l31.3-31.1
						c-2.4-3.5-3.8-7.7-3.7-11.9L559.9,43.8z"/>
					<path class="st21" d="M602.9,125c8.3-9,12.9-20.7,12.9-32.9V45.3c0-0.5-0.1-1-0.3-1.5l-46.7,46.4c0.6,1.1,1.4,2.1,2.3,3
						L602.9,125z"/>
					<path class="st18" d="M614.7,42.8L614.7,42.8L572.2,0.9c-1.2-1.1-3-1.1-4.2,0c-0.5,0.5-0.8,1.3-0.9,2L567,42.1v41.3
						c0,2.4,0.6,4.8,1.8,6.9l46.7-46.5C615.3,43.4,615,43.1,614.7,42.8"/>
					<path class="st18" d="M384.9,62.8c-0.5-0.5-1.4-0.5-1.9,0c-0.5,0.5-0.5,1.4,0,1.9c0.5,0.5,1.4,0.5,1.9,0c0.3-0.3,0.4-0.6,0.4-1
						C385.3,63.4,385.1,63.1,384.9,62.8 M381.1,62.8c-0.5-0.5-1.4-0.5-1.9,0c-0.5,0.5-0.5,1.4,0,1.9c0,0,0,0,0,0
						c0.5,0.5,1.4,0.5,1.9,0c0.2-0.2,0.4-0.6,0.4-0.9C381.5,63.4,381.4,63.1,381.1,62.8"/>
					<path class="st18" d="M391.9,47.8c-0.2-0.3-0.6-0.4-0.9-0.4c-0.4,0-0.7,0.1-1,0.4c-0.3,0.2-0.4,0.6-0.4,0.9
						c0,0.4,0.1,0.7,0.4,0.9c0.3,0.3,0.6,0.4,1,0.4c0.4,0,0.7-0.1,0.9-0.4c0.3-0.2,0.4-0.6,0.4-0.9C392.3,48.3,392.2,48,391.9,47.8"
						/>
					<path class="st18" d="M402,47.8c-0.2-0.2-0.6-0.4-0.9-0.4c-0.7,0-1.3,0.6-1.3,1.3c0,0.3,0.1,0.7,0.4,0.9
						c0.2,0.3,0.6,0.4,0.9,0.4c0.7,0,1.3-0.6,1.3-1.3C402.4,48.4,402.3,48,402,47.8 M405.8,47.7c-0.3-0.3-0.6-0.4-1-0.4
						c-0.3,0-0.7,0.1-0.9,0.4c-0.3,0.3-0.4,0.6-0.4,1c0,0.3,0.1,0.7,0.4,0.9c0.2,0.3,0.6,0.4,0.9,0.4c0.4,0,0.7-0.1,1-0.4
						c0.3-0.2,0.4-0.6,0.4-0.9C406.2,48.4,406.1,48,405.8,47.7"/>
					<path class="st18" d="M417.8,47.8c-0.3-0.3-0.6-0.4-1-0.4c-0.3,0-0.7,0.1-0.9,0.4c-0.3,0.2-0.4,0.6-0.4,0.9
						c0,0.4,0.1,0.7,0.4,0.9c0.2,0.3,0.6,0.4,0.9,0.4c0.7,0,1.3-0.6,1.4-1.3C418.1,48.3,418,48,417.8,47.8 M413.9,47.8
						c-0.3-0.2-0.6-0.4-0.9-0.4c-0.3,0-0.7,0.1-0.9,0.4c-0.3,0.2-0.4,0.6-0.4,0.9c0,0.4,0.1,0.7,0.4,0.9c0.2,0.3,0.6,0.4,0.9,0.4
						c0.4,0,0.7-0.1,0.9-0.4c0.2-0.2,0.4-0.6,0.4-0.9C414.3,48.3,414.2,48,413.9,47.8"/>
					<path class="st18" d="M424.2,44.1c-0.2,0-0.4-0.1-0.6-0.1c-0.3,0-0.7,0.1-0.9,0.3c-0.2,0.2-0.4,0.5-0.4,0.8v13.6h-3.7
						c-0.5,0-1-0.1-1.5-0.3c-0.4-0.2-0.6-0.5-0.8-0.9c-0.2-0.6-0.2-1.1-0.2-1.7v-4.3c-0.2-0.1-0.3-0.1-0.5-0.2
						c-0.2,0-0.4-0.1-0.6-0.1c-0.3,0-0.7,0.1-0.9,0.3c-0.2,0.2-0.4,0.5-0.4,0.8V56c0,0.6-0.1,1.2-0.2,1.7c-0.1,0.4-0.4,0.7-0.8,0.9
						c-0.5,0.2-1,0.3-1.5,0.3H407c0.7-0.7,1.1-1.7,1-2.7c0-0.9-0.2-1.7-0.7-2.4c-0.5-0.7-1.1-1.3-1.9-1.7c-1.6-0.9-3.6-0.9-5.2,0
						c-0.8,0.4-1.4,1-1.9,1.7c-0.5,0.7-0.7,1.6-0.7,2.4c0,1,0.3,2,1.1,2.7h-4.2c-0.5,0-1-0.1-1.5-0.3c-0.4-0.2-0.6-0.5-0.8-0.9
						c-0.2-0.6-0.2-1.1-0.2-1.7v-4.3c-0.2-0.1-0.3-0.1-0.5-0.2c-0.2,0-0.4-0.1-0.6-0.1c-0.3,0-0.7,0.1-0.9,0.3
						c-0.2,0.2-0.4,0.5-0.4,0.8V56c0,0.6-0.1,1.2-0.2,1.7c-0.1,0.4-0.4,0.7-0.8,0.9c-0.5,0.2-1,0.3-1.5,0.3h-1.5
						c-0.5,0-1-0.1-1.5-0.3c-0.4-0.2-0.7-0.5-0.8-0.9c-0.2-0.6-0.2-1.1-0.2-1.7v-4.3c-0.2-0.1-0.3-0.1-0.5-0.2
						c-0.2,0-0.4-0.1-0.6-0.1c-0.3,0-0.7,0.1-0.9,0.3c-0.2,0.2-0.4,0.5-0.4,0.8V56c0,0.6-0.1,1.2-0.2,1.7c-0.1,0.4-0.4,0.7-0.8,0.9
						c-1,0.2-2.1,0.3-3.1,0.3h-2.1v-7.4h-4.7c-2.6,0.2-4.7,2.4-4.5,5.1c0.2,2.4,2.1,4.3,4.5,4.5h6.6c1.4,0,2.8-0.1,4.2-0.3
						c0.6-0.2,1-0.6,1.3-1.1c0.5,1,1.5,1.5,2.6,1.5h2.4c0.9,0,1.8-0.1,2.6-0.3c0.6-0.2,1-0.6,1.3-1.1c0.5,1,1.6,1.5,2.7,1.5H411
						c0.9,0,1.8-0.1,2.6-0.3c0.6-0.2,1-0.6,1.3-1.1c0.5,1,1.6,1.5,2.7,1.5h7.2V44.3C424.6,44.2,424.4,44.1,424.2,44.1 M372.3,58.8
						h-2.5c-1.5-0.2-2.5-1.6-2.3-3.1c0.2-1.2,1.1-2.1,2.3-2.3h2.4L372.3,58.8z M404.9,58.1c-0.5,0.5-1.2,0.8-1.9,0.8
						c-0.7,0-1.4-0.3-1.9-0.8c-0.5-0.5-0.8-1.3-0.8-2c0-0.7,0.2-1.5,0.8-2c1.1-1.1,2.8-1,3.9,0c0.5,0.5,0.8,1.2,0.8,2
						C405.7,56.8,405.4,57.5,404.9,58.1"/>
					<path class="st18" d="M429.8,60.9h-2.5V45.2c0-0.3,0.1-0.6,0.4-0.9c0.3-0.2,0.6-0.3,0.9-0.3c0.2,0,0.4,0,0.6,0.1
						c0.2,0,0.4,0.1,0.5,0.2L429.8,60.9z"/>
					<path class="st18" d="M477.8,52.6c-1-0.9-2.2-1.4-3.6-1.3c-2.5-0.2-4.8,1.7-4.9,4.3c0,0.2,0,0.5,0,0.7c0.1,0.7-0.1,1.4-0.6,2
						c-0.5,0.4-1.1,0.6-1.7,0.6h-5c-0.5-0.1-0.6-0.3-0.1-0.6l0,0l2.3-1.8c0-2.7-2.2-4.9-4.9-4.9c0,0-0.1,0-0.1,0
						c-2.6-0.1-4.9,2-4.9,4.6c0,0.1,0,0.2,0,0.3l2.5,1.9c0.4,0.3,0.4,0.6-0.1,0.6l-8.5,0.1v-7.5h-4.7c-2.6,0.2-4.7,2.4-4.5,5.1
						c0.2,2.4,2.1,4.3,4.5,4.5h24c0.6,0,1.2-0.1,1.8-0.3c0.5-0.2,1-0.5,1.3-1c2,2,5.2,2.1,7.3,0.2c0.9-1,1.4-2.3,1.3-3.6
						C479.2,55,478.7,53.7,477.8,52.6 M445.8,58.9h-2.4c-1.5-0.2-2.5-1.6-2.3-3.1c0.2-1.2,1.1-2.1,2.3-2.3h2.4V58.9z M456.4,56.1
						c0-1.4,1.1-2.5,2.5-2.5c0.1,0,0.2,0,0.3,0c1.4-0.1,2.6,0.9,2.8,2.2c0,0.1,0,0.2,0,0.2l-2.6,1.9L456.4,56.1z M476,58.3
						c-1,1-2.6,1-3.6,0.1c0,0,0,0-0.1-0.1c-0.8-1.2-0.8-2.9,0-4.1c1-1,2.6-1,3.6-0.1c0,0,0,0,0.1,0.1
						C476.8,55.5,476.8,57.1,476,58.3"/>
					<path class="st18" d="M497.4,56.8v4.1h-15.6V45.2c0-0.3,0.1-0.6,0.4-0.9c0.3-0.2,0.6-0.3,0.9-0.3c0.2,0,0.4,0,0.6,0.1
						c0.2,0,0.4,0.1,0.5,0.2v14.5h10.8v-1.9c0-1.7-1.4-3.2-3.2-3.2h-3.1v-2.4h3.3C494.9,51.4,497.4,53.8,497.4,56.8
						C497.4,56.8,497.4,56.8,497.4,56.8"/>
					<path class="st18" d="M491.6,64.7c-0.3-0.2-0.4-0.6-0.4-0.9c0-0.3,0.1-0.7,0.4-0.9c0.5-0.5,1.4-0.5,1.9,0
						c0.3,0.2,0.4,0.6,0.4,0.9c0,0.7-0.6,1.3-1.4,1.3C492.2,65.1,491.9,64.9,491.6,64.7"/>
					<path class="st18" d="M368.5,49.7c-0.5-0.5-0.5-1.4,0-1.9c0.2-0.2,0.6-0.4,0.9-0.4c0.7,0,1.3,0.6,1.3,1.3
						c0,0.4-0.1,0.7-0.4,0.9c-0.2,0.3-0.6,0.4-0.9,0.4C369.1,50.1,368.8,49.9,368.5,49.7"/>
					<path class="st18" d="M372.3,49.7c-0.5-0.5-0.5-1.4,0-1.9c0,0,0,0,0,0c0.2-0.2,0.6-0.4,0.9-0.4c0.4,0,0.7,0.1,1,0.4
						c0.5,0.5,0.5,1.3,0,1.8c0,0,0,0,0,0c-0.2,0.3-0.6,0.4-1,0.4C372.9,50.1,372.5,49.9,372.3,49.7"/>
					<path class="st18" d="M442,49.7c-0.5-0.5-0.5-1.4,0-1.9c0.2-0.3,0.6-0.4,0.9-0.4c0.7,0,1.3,0.6,1.3,1.3s-0.6,1.3-1.3,1.3l0,0
						C442.6,50.1,442.3,49.9,442,49.7"/>
					<path class="st18" d="M445.8,49.7c-0.5-0.5-0.5-1.4,0-1.9c0,0,0,0,0,0c0.2-0.3,0.6-0.4,0.9-0.4c0.4,0,0.7,0.1,1,0.4
						c0.5,0.5,0.5,1.4,0,1.9c0,0,0,0,0,0c-0.3,0.3-0.6,0.4-1,0.4C446.4,50.1,446,49.9,445.8,49.7"/>
					<path class="st18" d="M432.9,77.2c-2.6,0-4.8,2.1-4.8,4.7c0,0,0,0,0,0v2.5l0,0c-1.8,0-2.8,1-2.8,3v4.3h2.4V88
						c0-0.4,0.1-0.8,0.3-1.2c0.1-0.1,0.3-0.2,0.5-0.2h9.2v-4.9C437.6,79.2,435.5,77.1,432.9,77.2 M435.5,84.3h-5.3v-2.5
						c0.1-1.5,1.4-2.5,2.9-2.4c1.3,0.1,2.3,1.1,2.4,2.4V84.3z"/>
					<path class="st18" d="M484.8,86.7h-2.4V70.9c0-0.3,0.1-0.6,0.4-0.8c0.3-0.2,0.6-0.3,0.9-0.3c0.2,0,0.4,0,0.6,0.1
						c0.2,0,0.4,0.1,0.5,0.2V86.7z"/>
					<line class="st22" x1="492.7" y1="84.5" x2="494.9" y2="84.5"/>
					<path class="st18" d="M497.3,86.6v-9.5h-4.7c-2.7,0.2-4.6,2.5-4.4,5.2c0.2,2.3,2.1,4.2,4.4,4.4h2.4c0.1,0.8-0.2,1.6-0.6,2.3
						c-0.5,0.6-1.3,0.9-2.1,0.8c-0.7,0-1.5-0.2-2.1-0.5l-0.7,1.9c0.4,0.2,0.9,0.4,1.3,0.4c0.5,0.1,1.1,0.2,1.6,0.2
						C495.5,91.9,497.2,90.1,497.3,86.6L497.3,86.6L497.3,86.6z M490.4,81.9c-0.1-1.4,0.9-2.5,2.3-2.7h2.4v5.3h-2.4
						C491.3,84.4,490.3,83.2,490.4,81.9"/>
					<line class="st22" x1="445.8" y1="84.5" x2="448.1" y2="84.5"/>
					<path class="st18" d="M479.2,69.8c-0.2,0-0.4-0.1-0.6-0.1c-0.3,0-0.7,0.1-0.9,0.3c-0.2,0.2-0.4,0.5-0.4,0.9v13.6h-6.8
						c-0.6,0-0.6-0.3-0.1-0.6l0,0l2.3-1.8c0-2.7-2.2-4.9-4.9-4.9c0,0-0.1,0-0.1,0c-2.7-0.1-4.9,2-4.9,4.6c0,0.1,0,0.2,0,0.3l2.5,1.9
						c0.4,0.3,0.4,0.6-0.1,0.6h-4.8c-0.6,0.1-1.3-0.2-1.7-0.6c-0.4-0.7-0.6-1.5-0.5-2.3V70c-0.2-0.1-0.3-0.1-0.5-0.2
						c-0.2,0-0.4-0.1-0.6-0.1c-0.3,0-0.7,0.1-0.9,0.3c-0.3,0.2-0.4,0.5-0.4,0.9v10.7c0.1,0.8-0.1,1.6-0.5,2.3
						c-0.4,0.5-1.1,0.7-1.7,0.7h-3v-7.4h-4.7c-2.6,0.2-4.7,2.4-4.5,5.1c0.2,2.4,2.1,4.3,4.5,4.5h2.4c0.1,0.8-0.2,1.6-0.6,2.3
						c-0.5,0.6-1.3,0.9-2.1,0.8c-0.7,0-1.5-0.2-2.1-0.5l-0.6,1.9c0.4,0.2,0.9,0.4,1.3,0.4c0.5,0.1,1.1,0.2,1.6,0.2
						c3.1,0,4.8-1.7,5-5.2h2.9c0.8,0,1.5-0.1,2.3-0.3c0.1-0.7,0.7-1.2,1.4-1.1c0.6,0.1,1,0.5,1.1,1.1c0.7,0.2,1.5,0.4,2.2,0.3h19.3
						V70C479.5,69.9,479.3,69.9,479.2,69.8 M464.9,81.8c0-1.4,1.1-2.5,2.5-2.5c0.1,0,0.2,0,0.3,0c1.4-0.1,2.6,0.8,2.8,2.2
						c0,0.1,0,0.2,0,0.2l-2.6,1.9L464.9,81.8z M448.2,84.5h-2.4c-1.5-0.2-2.5-1.6-2.3-3c0.2-1.2,1.1-2.1,2.3-2.3h2.4L448.2,84.5z"/>
					<path class="st18" d="M342.9,88.5c-0.5-0.5-1.4-0.5-1.9,0c-0.3,0.2-0.4,0.6-0.4,0.9c0,0.4,0.1,0.7,0.4,0.9
						c0.5,0.5,1.4,0.5,1.9,0c0.3-0.3,0.4-0.6,0.4-0.9C343.3,89.1,343.1,88.7,342.9,88.5 M339.1,88.5c-0.5-0.5-1.4-0.5-1.9,0
						c-0.3,0.3-0.4,0.6-0.4,0.9c0,0.4,0.1,0.7,0.4,0.9c0.5,0.5,1.4,0.5,1.9,0c0.2-0.3,0.4-0.6,0.4-0.9
						C339.5,89.1,339.4,88.7,339.1,88.5"/>
					<path class="st18" d="M351.1,73.5c-0.3-0.2-0.6-0.4-0.9-0.4c-0.3,0-0.7,0.1-0.9,0.4c-0.2,0.3-0.4,0.6-0.4,0.9
						c0,0.3,0.1,0.7,0.4,0.9c0.2,0.3,0.6,0.4,0.9,0.4c0.4,0,0.7-0.1,0.9-0.4c0.2-0.2,0.4-0.6,0.4-0.9
						C351.4,74.1,351.3,73.7,351.1,73.5 M354.8,73.5c-0.3-0.3-0.6-0.4-1-0.4c-0.3,0-0.7,0.1-0.9,0.4c-0.2,0.3-0.4,0.6-0.4,0.9
						c0,0.3,0.1,0.7,0.4,0.9c0.2,0.3,0.6,0.4,0.9,0.4c0.7,0,1.3-0.6,1.4-1.3c0,0,0,0,0,0C355.2,74.1,355,73.7,354.8,73.5"/>
					<path class="st18" d="M363.1,88.5c-0.2-0.3-0.6-0.4-0.9-0.4c-0.7,0-1.3,0.6-1.3,1.3c0,0.4,0.1,0.7,0.4,0.9
						c0.2,0.3,0.6,0.4,0.9,0.4c0.4,0,0.7-0.1,0.9-0.4c0.3-0.2,0.4-0.6,0.4-0.9C363.5,89.1,363.3,88.7,363.1,88.5 M366.8,88.5
						c-0.5-0.5-1.4-0.5-1.9,0c-0.2,0.2-0.4,0.6-0.4,0.9c0,0.4,0.1,0.7,0.4,0.9c0.5,0.5,1.4,0.5,1.9,0c0,0,0,0,0,0
						c0.3-0.2,0.4-0.6,0.4-0.9C367.2,89.1,367.1,88.7,366.8,88.5"/>
					<path class="st18" d="M374,88.5c-0.3-0.3-0.6-0.4-1-0.4c-0.4,0-0.7,0.1-1,0.4c-0.3,0.2-0.4,0.6-0.4,0.9
						c0.1,0.7,0.7,1.3,1.5,1.2c0.7-0.1,1.2-0.6,1.2-1.2C374.3,89.1,374.2,88.8,374,88.5"/>
					<path class="st18" d="M404.4,73.4c-0.3-0.3-0.6-0.4-1-0.4c-0.7,0-1.3,0.6-1.3,1.3c0,0,0,0,0,0c0,0.3,0.1,0.7,0.4,0.9
						c0.2,0.3,0.6,0.4,0.9,0.4c0.7,0,1.3-0.6,1.4-1.3C404.8,74,404.6,73.6,404.4,73.4 M400.6,73.4c-0.3-0.3-0.6-0.4-1-0.4
						c-0.3,0-0.7,0.1-0.9,0.4c-0.3,0.3-0.4,0.6-0.4,1c0,0.3,0.1,0.7,0.4,0.9c0.2,0.3,0.6,0.4,0.9,0.4c0.4,0,0.8-0.1,1-0.4
						c0.2-0.2,0.4-0.6,0.4-0.9C401,74,400.8,73.6,400.6,73.4"/>
					<path class="st18" d="M416.5,86.6H414V70.8c0-0.3,0.1-0.6,0.4-0.8c0.3-0.2,0.6-0.3,0.9-0.3c0.2,0,0.4,0,0.6,0.1
						c0.2,0,0.4,0.1,0.5,0.2V86.6z"/>
					<path class="st18" d="M410.9,69.8c-0.2,0-0.4-0.1-0.6-0.1c-0.3,0-0.7,0.1-0.9,0.3c-0.2,0.2-0.4,0.5-0.4,0.8v13.6h-3.7
						c-0.5,0-1-0.1-1.5-0.2c-0.4-0.2-0.6-0.5-0.8-0.9c-0.2-0.6-0.3-1.1-0.2-1.7v-4.3c-0.2-0.1-0.3-0.1-0.5-0.2
						c-0.2,0-0.4-0.1-0.6-0.1c-0.3,0-0.7,0.1-0.9,0.3c-0.2,0.2-0.4,0.5-0.4,0.9v3.4c0,0.6-0.1,1.2-0.2,1.7c-0.1,0.4-0.4,0.7-0.8,0.9
						c-0.5,0.2-1,0.3-1.5,0.3h-3.3v-1.4c0-1-0.1-2.1-0.5-3c-0.3-0.7-0.8-1.4-1.4-1.9c-0.6-0.5-1.3-0.8-2-1c-0.7-0.2-1.5-0.3-2.2-0.3
						c-1.2,0-2.4,0.2-3.5,0.8c-0.8,0.4-1.5,1-2,1.8v-9.6c-0.2-0.1-0.3-0.1-0.5-0.2c-0.2,0-0.4-0.1-0.6-0.1c-0.3,0-0.7,0.1-0.9,0.3
						c-0.2,0.2-0.4,0.5-0.4,0.8v13.6h-3.7c-0.5,0-1-0.1-1.5-0.2c-0.4-0.2-0.6-0.5-0.8-0.9c-0.2-0.6-0.3-1.1-0.2-1.7v-4.3
						c-0.2-0.1-0.3-0.1-0.5-0.2c-0.2,0-0.4-0.1-0.6-0.1c-0.3,0-0.7,0.1-0.9,0.3c-0.2,0.2-0.4,0.5-0.4,0.9v3.4c0,0.6-0.1,1.2-0.2,1.7
						c-0.1,0.4-0.4,0.7-0.8,0.9c-0.5,0.2-1,0.3-1.5,0.3h-1.5c-0.5,0-1-0.1-1.5-0.2c-0.4-0.2-0.6-0.5-0.8-0.9
						c-0.2-0.6-0.2-1.2-0.2-1.7v-4.3c-0.2-0.1-0.3-0.1-0.5-0.2c-0.2,0-0.4-0.1-0.6-0.1c-0.3,0-0.7,0.1-0.9,0.3
						c-0.2,0.2-0.4,0.5-0.4,0.9v3.4c0,0.6-0.1,1.2-0.2,1.7c-0.1,0.4-0.4,0.7-0.8,0.9c-0.5,0.2-1,0.3-1.5,0.3h-4.2
						c0.7-0.7,1.1-1.7,1-2.7c0-0.9-0.2-1.7-0.7-2.4c-0.5-0.7-1.1-1.3-1.9-1.7c-1.6-0.9-3.6-0.9-5.2,0c-0.8,0.4-1.4,1-1.8,1.7
						c-0.5,0.7-0.7,1.6-0.7,2.4c-0.1,1,0.3,2,1,2.7h-4.1c-0.5,0-1-0.1-1.5-0.2c-0.4-0.2-0.6-0.5-0.8-0.9c-0.2-0.6-0.2-1.2-0.2-1.7
						v-4.3c-0.2-0.1-0.3-0.1-0.5-0.2c-0.2,0-0.4-0.1-0.6-0.1c-0.3,0-0.7,0.1-0.9,0.3c-0.2,0.2-0.4,0.5-0.4,0.9v3.4
						c0,0.6-0.1,1.2-0.2,1.7c-0.1,0.4-0.4,0.7-0.8,0.9c-0.5,0.2-1,0.3-1.5,0.3h-3.8V77h-4.7c-2.7,0.2-4.6,2.5-4.4,5.2
						c0.2,2.3,2.1,4.2,4.4,4.4h8.2c0.9,0,1.8-0.1,2.6-0.3c0.6-0.2,1-0.6,1.3-1.1c0.5,1,1.5,1.5,2.6,1.5H360c0.9,0,1.8-0.1,2.7-0.3
						c0.6-0.2,1-0.6,1.3-1.1c0.5,1,1.6,1.5,2.7,1.5h2.3c0.9,0,1.8-0.1,2.7-0.3c0.6-0.2,1-0.6,1.3-1.1c0.5,1,1.6,1.5,2.7,1.5h22
						c0.9,0,1.8-0.1,2.7-0.3c0.6-0.2,1-0.6,1.3-1.1c0.5,1,1.6,1.5,2.7,1.5h7.2V69.9C411.2,69.9,411.1,69.8,410.9,69.8 M330.2,84.5
						h-2.4c-1.5-0.2-2.5-1.6-2.3-3.1c0.2-1.2,1.1-2.1,2.3-2.3h2.4V84.5z M353.9,83.7c-0.5,0.5-1.2,0.8-1.9,0.8
						c-0.7,0-1.4-0.3-1.9-0.8c-0.5-0.5-0.8-1.3-0.8-2c0-0.7,0.2-1.4,0.8-2c0.5-0.5,1.2-0.8,1.9-0.8c1.5,0,2.7,1.1,2.7,2.6
						c0,0,0,0.1,0,0.1C354.7,82.5,354.4,83.2,353.9,83.7 M392,84.5h-9.3c0-0.9,0.2-1.9,0.6-2.7c0.4-0.8,1-1.4,1.8-1.8
						c0.9-0.5,1.8-0.7,2.8-0.7c1.1-0.1,2.1,0.3,3,1c0.7,0.8,1.1,2,1,3.1L392,84.5z"/>
					<path class="st18" d="M326.5,75.3c-0.2-0.2-0.4-0.6-0.4-0.9c0-0.4,0.1-0.7,0.4-0.9c0.2-0.3,0.6-0.4,0.9-0.4
						c0.4,0,0.7,0.1,0.9,0.4c0.3,0.2,0.4,0.6,0.4,0.9c0,0.4-0.1,0.7-0.4,0.9c-0.2,0.3-0.6,0.4-0.9,0.4
						C327,75.7,326.7,75.6,326.5,75.3"/>
					<path class="st18" d="M330.2,75.3c-0.2-0.2-0.4-0.6-0.4-0.9c0-0.7,0.6-1.3,1.3-1.3c0,0,0,0,0,0c0.4,0,0.7,0.1,1,0.4
						c0.3,0.2,0.4,0.6,0.4,0.9c0,0.7-0.6,1.3-1.4,1.3c0,0,0,0,0,0C330.9,75.7,330.5,75.6,330.2,75.3"/>
					<path class="st18" d="M300.7,108.7c0.1,1.5-0.4,3-1.4,4.2c-2.3,1.9-5.7,1.9-8,0c-1-1.2-1.5-2.7-1.4-4.2v-5.5
						c0-0.3,0.1-0.5,0.3-0.7c0.2-0.2,0.5-0.3,0.8-0.3c0.2,0,0.3,0,0.5,0.1c0.2,0,0.3,0.1,0.5,0.2v6.1c-0.1,1.1,0.2,2.1,0.8,3
						c0.7,0.7,1.6,1,2.5,0.9c0.9,0.1,1.9-0.2,2.5-0.9c0.6-0.9,0.9-1.9,0.8-3v-5.4c0-0.3,0.1-0.5,0.3-0.7c0.2-0.2,0.5-0.3,0.8-0.3
						c0.2,0,0.3,0,0.5,0.1c0.2,0,0.3,0.1,0.5,0.2L300.7,108.7z"/>
					<path class="st18" d="M302.8,108.8c0-1.4,0.8-2.6,2-3.2c1.4-0.6,3-0.6,4.4,0c0.6,0.3,1.1,0.7,1.5,1.3c0.4,0.6,0.5,1.2,0.5,1.9
						v5.2h-1.9v-4.7c0-0.6-0.2-1.3-0.6-1.8c-0.4-0.4-1.1-0.7-1.7-0.6c-1.5,0-2.2,0.8-2.2,2.4v4.7h-2L302.8,108.8z"/>
					<path class="st18" d="M313.5,103.6c-0.2-0.2-0.3-0.5-0.3-0.9c0-0.3,0.1-0.6,0.3-0.9c0.2-0.2,0.5-0.3,0.9-0.3
						c0.3,0,0.6,0.1,0.8,0.3c0.2,0.2,0.4,0.5,0.3,0.9c0,0.3-0.1,0.6-0.3,0.9c-0.2,0.2-0.5,0.4-0.8,0.3
						C314,103.9,313.7,103.8,313.5,103.6 M315.3,114h-1.9v-7.7c0-0.3,0.1-0.5,0.3-0.7c0.2-0.2,0.5-0.2,0.8-0.2c0.2,0,0.3,0,0.5,0.1
						c0.1,0,0.3,0.1,0.4,0.1L315.3,114z"/>
					<path class="st18" d="M319.6,108.5c0.5,1.1,1,2.3,1.6,3.4c0.2-0.3,0.4-0.8,0.7-1.4s0.6-1.3,0.9-2s0.6-1.4,0.9-2.2
						c0.1-0.3,0.3-0.5,0.5-0.7c0.2-0.1,0.5-0.2,0.7-0.2c0.2,0,0.4,0,0.6,0.1c0.2,0,0.3,0.1,0.5,0.3c-0.1,0.3-0.2,0.7-0.4,1
						c-0.2,0.5-0.4,1-0.7,1.6c-0.3,0.6-0.6,1.3-0.9,1.9c-0.3,0.7-0.6,1.3-1,1.9c-0.4,0.6-0.6,1.2-0.9,1.7h-1.9
						c-0.7-1.2-1.3-2.4-1.8-3.5c-0.6-1.1-1-2-1.3-2.8c-0.1-0.4-0.3-0.7-0.4-0.9c-0.1-0.2-0.1-0.3-0.1-0.5c0-0.2,0.1-0.5,0.3-0.6
						c0.2-0.2,0.5-0.2,0.7-0.2c0.2,0,0.3,0,0.5,0.1c0.1,0,0.2,0.1,0.4,0.1C318.7,106.3,319.1,107.3,319.6,108.5"/>
					<path class="st18" d="M336.5,108.4c0-0.9,0.3-1.8,1-2.4c1.3-0.9,3-1.1,4.5-0.5c0.4,0.1,0.6,0.5,0.6,0.9c0,0.2-0.1,0.4-0.2,0.6
						c-0.1,0.1-0.2,0.3-0.3,0.4c-0.5-0.3-1.1-0.4-1.7-0.4c-1.3,0-2,0.7-2,2.1v5h-2L336.5,108.4z"/>
					<path class="st18" d="M351.3,111.4c0,0.8-0.4,1.6-1.1,2.1c-0.9,0.5-1.9,0.8-2.9,0.7c-0.6,0-1.1-0.1-1.7-0.2
						c-0.5-0.1-1.1-0.2-1.6-0.4c-0.4-0.1-0.8-0.3-1.1-0.5l0.7-1.3c0.5,0.3,1,0.5,1.5,0.6c0.7,0.2,1.3,0.3,2,0.3c1.4,0,2-0.3,2-1
						c0-0.7-0.5-0.9-1.7-1.1l-1.8-0.2c-0.7-0.1-1.4-0.3-2-0.8c-0.5-0.4-0.7-1.1-0.7-1.7c0-0.8,0.3-1.6,1-2c0.9-0.5,2-0.8,3-0.7
						c0.6,0,1.2,0.1,1.9,0.2c0.5,0.1,0.9,0.3,1.3,0.5c0.3,0.1,0.4,0.4,0.5,0.7c0,0.2-0.1,0.4-0.2,0.5c-0.1,0.2-0.3,0.3-0.4,0.4
						c-0.2-0.2-0.5-0.3-0.7-0.4c-0.4-0.1-0.8-0.2-1.2-0.3c-0.4-0.1-0.9-0.1-1.3-0.1c-0.5,0-1,0.1-1.4,0.3c-0.3,0.1-0.5,0.4-0.5,0.8
						c0,0.3,0.1,0.5,0.3,0.6c0.3,0.2,0.7,0.3,1.1,0.4l1.8,0.2C350.2,109.2,351.2,110,351.3,111.4"/>
					<path class="st18" d="M353.1,103.6c-0.2-0.2-0.3-0.5-0.3-0.9c0-0.3,0.1-0.6,0.3-0.9c0.2-0.2,0.5-0.3,0.9-0.3
						c0.3,0,0.6,0.1,0.8,0.3c0.2,0.2,0.4,0.5,0.3,0.9c0,0.3-0.1,0.6-0.3,0.9c-0.2,0.2-0.5,0.4-0.8,0.3
						C353.7,103.9,353.3,103.8,353.1,103.6 M355,114h-2v-7.7c0-0.3,0.1-0.5,0.3-0.7c0.2-0.2,0.5-0.2,0.8-0.2c0.2,0,0.3,0,0.5,0.1
						c0.1,0,0.3,0.1,0.4,0.1L355,114z"/>
					<path class="st18" d="M357.1,103.8c0-0.3,0.1-0.5,0.3-0.7c0.2-0.2,0.5-0.2,0.8-0.2c0.2,0,0.3,0,0.5,0.1c0.1,0,0.3,0.1,0.4,0.1
						v2.2h2.5c0.7,0,1,0.3,1,0.9c0,0.3-0.1,0.6-0.2,0.9H359v3.8c0,0.4,0.1,0.8,0.4,1.1c0.3,0.3,0.7,0.4,1.1,0.4c0.3,0,0.6,0,0.9-0.1
						c0.3-0.1,0.5-0.2,0.7-0.3l0.8,1.3c-0.4,0.3-0.8,0.5-1.2,0.6c-0.5,0.2-1,0.3-1.6,0.3c-0.8,0-1.6-0.2-2.2-0.8
						c-0.6-0.5-0.9-1.3-0.8-2.1L357.1,103.8z"/>
					<path class="st18" d="M372.3,113.1c0.1,1.2-0.3,2.5-1.2,3.4c-0.9,0.8-2.2,1.2-3.4,1.1c-0.6,0-1.2-0.1-1.9-0.2
						c-0.6-0.1-1.1-0.2-1.6-0.4l0.5-1.5c0.3,0.1,0.5,0.2,0.8,0.3c0.3,0.1,0.7,0.1,1,0.2c0.3,0,0.7,0.1,1,0.1
						c0.8,0.1,1.5-0.2,2.1-0.6c0.5-0.5,0.8-1.3,0.7-2v-0.5c-0.2,0.4-0.6,0.6-1,0.8c-0.5,0.2-1.1,0.3-1.7,0.3c-0.7,0-1.4-0.1-2-0.4
						c-0.6-0.3-1-0.7-1.3-1.2c-0.3-0.6-0.5-1.2-0.5-1.8v-4.2c0-0.3,0.1-0.5,0.3-0.7c0.2-0.2,0.5-0.2,0.8-0.2c0.2,0,0.3,0,0.5,0.1
						c0.1,0,0.3,0.1,0.4,0.1v4.6c-0.1,1.1,0.7,2.1,1.8,2.2c0.1,0,0.3,0,0.4,0c0.6,0,1.2-0.2,1.7-0.6c0.4-0.5,0.6-1.1,0.6-1.8v-3.7
						c0-0.3,0.1-0.5,0.3-0.7c0.2-0.2,0.5-0.2,0.8-0.2c0.2,0,0.3,0,0.5,0.1c0.1,0,0.3,0.1,0.4,0.1L372.3,113.1z"/>
					<path class="st18" d="M392.5,104.8c-0.1-1,0.3-1.9,0.9-2.6c0.8-0.7,1.8-1,2.8-0.9c0.7-0.1,1.4,0.1,2,0.5
						c0.2,0.2,0.4,0.4,0.4,0.7c0,0.4-0.2,0.7-0.5,0.9c-0.2-0.2-0.5-0.3-0.8-0.4c-0.3-0.1-0.7-0.1-1-0.1c-1.3,0-1.9,0.7-1.9,2v0.5
						h2.6c0.7,0,1,0.3,1,0.9c0,0.3-0.1,0.6-0.2,0.9h-3.4v6.8h-2L392.5,104.8z"/>
					<path class="st18" d="M406.8,104.1h-3.5c-0.7,0-1-0.3-1-0.9c0-0.2,0-0.4,0.1-0.5c0-0.1,0.1-0.3,0.2-0.4h9.8c0.7,0,1,0.3,1,0.9
						c0,0.2,0,0.4-0.1,0.5c0,0.1-0.1,0.3-0.2,0.4h-4.3v9.9h-2L406.8,104.1z"/>
					<path class="st18" d="M422.9,107.3c0.4-0.7,1-1.2,1.7-1.6c0.8-0.4,1.7-0.6,2.6-0.6c0.5,0,1,0.1,1.6,0.2
						c0.4,0.1,0.8,0.3,1.1,0.5c0.2,0.2,0.4,0.4,0.4,0.7c0,0.2-0.1,0.4-0.2,0.6c-0.1,0.2-0.3,0.4-0.5,0.5c-0.3-0.3-0.6-0.5-1-0.6
						c-0.4-0.1-0.9-0.2-1.3-0.2c-0.7,0-1.5,0.2-2,0.8c-1.1,1.1-1.2,2.9-0.1,4c0.6,0.6,1.4,0.9,2.2,0.9c0.8,0,1.5-0.2,2.1-0.6
						l0.8,1.5c-1,0.6-2.1,0.9-3.2,0.9c-0.8,0-1.7-0.2-2.4-0.6c-0.7-0.4-1.2-0.9-1.6-1.6c-0.4-0.7-0.6-1.6-0.6-2.4
						C422.4,108.8,422.6,108,422.9,107.3"/>
					<path class="st18" d="M431.3,102.3c0-0.3,0.1-0.5,0.3-0.7c0.2-0.2,0.5-0.2,0.8-0.2c0.2,0,0.3,0,0.5,0.1c0.1,0,0.3,0.1,0.4,0.1
						v4.7c0.3-0.4,0.7-0.7,1.2-0.8c0.5-0.2,1.1-0.3,1.7-0.3c1-0.1,1.9,0.3,2.6,0.9c0.7,0.7,1,1.6,0.9,2.6v5.3h-2v-4.8
						c0.1-0.6-0.1-1.2-0.5-1.7c-0.4-0.4-1-0.6-1.6-0.6c-0.7,0-1.3,0.2-1.8,0.6c-0.5,0.5-0.7,1.2-0.6,1.8v4.6h-2L431.3,102.3z"/>
					<path class="st18" d="M441.7,108.8c0-1.4,0.8-2.6,2-3.2c1.4-0.6,3-0.6,4.4,0c0.6,0.3,1.1,0.7,1.5,1.3c0.4,0.6,0.5,1.2,0.5,1.9
						v5.2h-2v-4.7c0-0.6-0.2-1.3-0.6-1.8c-0.4-0.4-1.1-0.6-1.7-0.6c-1.5,0-2.2,0.8-2.2,2.4v4.7h-2V108.8z"/>
					<path class="st18" d="M452.4,112c-0.8-1.4-0.8-3.2,0-4.6c0.4-0.7,1-1.2,1.7-1.6c0.7-0.4,1.6-0.6,2.4-0.6c0.8,0,1.7,0.2,2.4,0.6
						c2.2,1.2,3,4,1.7,6.2c0,0,0,0,0,0c-0.4,0.7-1,1.3-1.7,1.6c-0.7,0.4-1.6,0.6-2.4,0.6c-0.8,0-1.7-0.2-2.4-0.6
						C453.4,113.2,452.8,112.7,452.4,112 M458.8,111.1c0.5-0.9,0.5-2,0-2.9c-0.2-0.4-0.6-0.8-1-1c-0.4-0.2-0.9-0.4-1.4-0.4
						c-0.5,0-1,0.1-1.4,0.4c-0.4,0.2-0.7,0.6-0.9,1c-0.5,0.9-0.5,2,0,2.9c0.2,0.4,0.5,0.8,0.9,1c0.4,0.2,0.9,0.4,1.4,0.4
						c0.5,0,1-0.1,1.4-0.4C458.3,111.9,458.6,111.6,458.8,111.1"/>
					<path class="st18" d="M464.9,114h-2v-11.7c0-0.3,0.1-0.5,0.3-0.7c0.2-0.2,0.5-0.2,0.8-0.2c0.2,0,0.3,0,0.5,0.1
						c0.1,0,0.3,0.1,0.4,0.1L464.9,114z"/>
					<path class="st18" d="M467.1,112c-0.8-1.4-0.8-3.2,0-4.6c0.4-0.7,1-1.2,1.7-1.6c0.7-0.4,1.6-0.6,2.4-0.6c0.8,0,1.7,0.2,2.4,0.6
						c2.2,1.2,3,4,1.7,6.2c0,0,0,0,0,0.1c-0.4,0.7-1,1.3-1.7,1.6c-0.7,0.4-1.6,0.6-2.4,0.6c-0.8,0-1.7-0.2-2.4-0.6
						C468.1,113.2,467.6,112.7,467.1,112 M473.6,111.1c0.5-0.9,0.5-2,0-2.9c-0.2-0.4-0.6-0.8-1-1c-0.4-0.2-0.9-0.4-1.4-0.4
						c-0.5,0-1,0.1-1.4,0.4c-0.4,0.2-0.8,0.6-1,1c-0.5,0.9-0.5,2,0,2.9c0.2,0.4,0.6,0.8,1,1c0.4,0.2,0.9,0.4,1.4,0.4
						c0.5,0,1-0.1,1.4-0.4C473,111.9,473.4,111.6,473.6,111.1"/>
					<path class="st18" d="M481.7,117.6c-0.6,0-1.3-0.1-1.9-0.2c-0.5-0.1-1.1-0.3-1.6-0.5l0.5-1.5c0.4,0.2,0.8,0.3,1.3,0.4
						c0.5,0.1,1,0.2,1.5,0.2c0.8,0.1,1.7-0.2,2.3-0.8c0.6-0.6,0.9-1.4,0.8-2.3v-0.2c-0.3,0.4-0.7,0.7-1.2,0.9
						c-0.5,0.2-1.1,0.4-1.7,0.4c-0.8,0-1.5-0.2-2.2-0.5c-0.7-0.4-1.2-0.9-1.6-1.5c-0.4-0.7-0.6-1.5-0.6-2.3c0-0.8,0.2-1.6,0.6-2.3
						c0.4-0.7,1-1.2,1.7-1.6c0.8-0.4,1.6-0.6,2.5-0.6c0.8,0,1.7,0.2,2.4,0.6c0.7,0.4,1.2,1,1.6,1.7c0.4,0.8,0.6,1.7,0.6,2.7v2.4
						c0.1,1.4-0.4,2.7-1.3,3.8C484.3,117.2,483,117.7,481.7,117.6 M482,106.9c-0.7,0-1.4,0.2-1.9,0.8c-1,1.2-1,2.9,0,4
						c0.5,0.5,1.2,0.8,1.9,0.8c0.7,0,1.4-0.2,1.9-0.8c1-1.2,1-2.9,0-4C483.4,107.1,482.7,106.9,482,106.9"/>
					<path class="st18" d="M496.8,113.1c0.1,1.2-0.3,2.5-1.2,3.4c-0.9,0.8-2.2,1.2-3.4,1.1c-0.6,0-1.2-0.1-1.9-0.2
						c-0.6-0.1-1.1-0.2-1.6-0.4l0.5-1.5c0.3,0.1,0.5,0.2,0.8,0.3c0.3,0.1,0.7,0.1,1,0.2c0.3,0,0.7,0.1,1,0.1
						c0.8,0.1,1.5-0.2,2.1-0.6c0.5-0.5,0.8-1.3,0.7-2v-0.5c-0.3,0.4-0.6,0.6-1,0.8c-0.5,0.2-1.1,0.3-1.7,0.3c-0.7,0-1.4-0.1-2-0.4
						c-0.6-0.3-1-0.7-1.3-1.2c-0.3-0.6-0.5-1.2-0.5-1.9v-4.2c0-0.3,0.1-0.5,0.3-0.7c0.2-0.2,0.5-0.2,0.8-0.2c0.2,0,0.3,0,0.5,0.1
						c0.1,0,0.3,0.1,0.4,0.1v4.6c0,0.6,0.2,1.2,0.6,1.6c0.4,0.4,1,0.6,1.6,0.6c0.6,0,1.2-0.2,1.7-0.6c0.4-0.5,0.6-1.1,0.6-1.8v-3.7
						c0-0.3,0.1-0.5,0.3-0.7c0.2-0.2,0.5-0.2,0.7-0.2c0.2,0,0.3,0,0.5,0.1c0.1,0,0.3,0.1,0.4,0.1L496.8,113.1z"/>
					<path class="st18" d="M381.4,112c-0.8-1.4-0.8-3.2,0-4.6c0.4-0.7,1-1.2,1.7-1.6c0.7-0.4,1.6-0.6,2.4-0.6c0.8,0,1.7,0.2,2.4,0.6
						c2.2,1.2,3,4,1.7,6.2c0,0,0,0,0,0c-0.4,0.7-1,1.3-1.7,1.6c-0.7,0.4-1.6,0.6-2.4,0.6c-0.8,0-1.7-0.2-2.4-0.6
						C382.4,113.2,381.8,112.7,381.4,112 M387.9,111.1c0.5-0.9,0.5-2,0-2.9c-0.2-0.4-0.6-0.8-1-1c-0.4-0.2-0.9-0.4-1.4-0.4
						c-0.5,0-1,0.1-1.4,0.4c-0.4,0.2-0.7,0.6-0.9,1c-0.5,0.9-0.5,2,0,2.9c0.2,0.4,0.5,0.8,0.9,1c0.4,0.2,0.9,0.4,1.4,0.4
						c0.5,0,1-0.1,1.4-0.4C387.3,111.9,387.6,111.6,387.9,111.1"/>
					<path class="st18" d="M332.6,129.9c0-0.7,0.2-1.4,0.5-1.9c0.4-0.6,0.9-1,1.5-1.3c0.7-0.3,1.4-0.5,2.2-0.5
						c0.8,0,1.5,0.1,2.2,0.5c1.3,0.6,2.1,1.8,2,3.2v5.2h-2v-4.7c0-0.6-0.2-1.3-0.6-1.8c-0.4-0.4-1-0.6-1.7-0.6
						c-1.5,0-2.2,0.8-2.2,2.4v4.7h-2V129.9z"/>
					<path class="st18" d="M352,130.4c0,0.9-0.2,1.8-0.6,2.7c-0.3,0.7-0.9,1.3-1.6,1.7c-0.7,0.4-1.6,0.6-2.4,0.6
						c-0.9,0-1.7-0.2-2.5-0.6c-0.7-0.4-1.3-0.9-1.7-1.6c-0.4-0.7-0.6-1.5-0.6-2.4c0-0.8,0.2-1.6,0.6-2.3c0.4-0.7,0.9-1.2,1.6-1.6
						c0.7-0.4,1.5-0.6,2.2-0.6c0.6,0,1.2,0.1,1.7,0.4c0.5,0.2,0.9,0.6,1.2,1v-4.3c0-0.3,0.1-0.5,0.3-0.7c0.2-0.2,0.5-0.2,0.8-0.2
						c0.2,0,0.3,0,0.5,0.1c0.1,0,0.3,0.1,0.4,0.1L352,130.4z M345.5,128.8c-1,1.2-1,2.9,0,4c1.1,1,2.8,1,3.8,0c1-1.2,1-2.9,0-4
						C348.2,127.7,346.5,127.7,345.5,128.8"/>
					<path class="st18" d="M357.2,135.1c0.4-1,0.8-2.2,1.3-3.4c0.5-1.2,1-2.5,1.6-3.7c0.6-1.3,1.1-2.5,1.7-3.7
						c0.1-0.4,0.4-0.7,0.7-0.9c0.3-0.2,0.7-0.3,1-0.3c0.2,0,0.5,0.1,0.7,0.1c0.2,0,0.4,0.1,0.5,0.3c0.2,0.3,0.4,0.7,0.5,1.1
						c0.2,0.5,0.5,1.1,0.8,1.8s0.6,1.4,1,2.2l1,2.4c0.3,0.8,0.6,1.6,0.9,2.3c0.3,0.7,0.5,1.4,0.7,1.9h-2.3c-0.1-0.3-0.2-0.6-0.4-1
						s-0.3-0.8-0.4-1.2s-0.3-0.7-0.4-1h-5.8c-0.2,0.5-0.4,0.9-0.6,1.4l-0.6,1.6L357.2,135.1z M362.7,126.7c-0.3,0.6-0.5,1.2-0.8,1.8
						c-0.3,0.6-0.5,1.2-0.7,1.8h4.4c-0.2-0.4-0.4-0.9-0.6-1.4l-0.6-1.5c-0.2-0.5-0.4-0.9-0.6-1.3c-0.2-0.4-0.3-0.7-0.4-0.9
						C363.2,125.6,362.9,126.1,362.7,126.7"/>
					<path class="st18" d="M370.6,131.2c0-0.9,0.2-1.8,0.6-2.7c0.3-0.7,0.9-1.3,1.6-1.7c0.7-0.4,1.6-0.6,2.4-0.6
						c0.9,0,1.7,0.2,2.5,0.6c0.7,0.4,1.3,0.9,1.7,1.6c0.4,0.7,0.6,1.5,0.6,2.3c0,0.8-0.2,1.6-0.6,2.3c-0.4,0.7-0.9,1.2-1.6,1.6
						c-0.7,0.4-1.5,0.6-2.2,0.6c-0.6,0-1.2-0.1-1.7-0.4c-0.5-0.2-0.9-0.6-1.2-1v4.5h-2V131.2z M377.1,132.9c1-1.2,1-2.9,0-4
						c-0.5-0.5-1.2-0.8-1.9-0.8c-0.7,0-1.4,0.3-1.9,0.8c-1,1.2-1,2.9,0,4c0.5,0.5,1.2,0.8,1.9,0.8
						C375.9,133.7,376.6,133.4,377.1,132.9"/>
					<path class="st18" d="M381.3,131.2c0-0.9,0.2-1.8,0.6-2.7c0.3-0.7,0.9-1.3,1.6-1.7c0.7-0.4,1.6-0.6,2.4-0.6
						c0.9,0,1.7,0.2,2.5,0.6c0.7,0.4,1.3,0.9,1.7,1.6c0.4,0.7,0.6,1.5,0.6,2.3c0,0.8-0.2,1.6-0.6,2.3c-0.4,0.7-0.9,1.2-1.6,1.6
						c-0.7,0.4-1.5,0.6-2.2,0.6c-0.6,0-1.2-0.1-1.7-0.4c-0.5-0.2-0.9-0.6-1.2-1v4.5h-2L381.3,131.2z M387.8,132.9c1-1.2,1-2.9,0-4
						c-1.1-1-2.8-1-3.8,0c-1,1.2-1,2.9,0,4C385.1,133.9,386.8,133.9,387.8,132.9"/>
					<path class="st18" d="M394.2,135.1h-2v-11.8c0-0.3,0.1-0.5,0.3-0.7c0.2-0.2,0.5-0.2,0.8-0.2c0.2,0,0.3,0,0.5,0.1
						c0.1,0,0.3,0.1,0.4,0.1V135.1z"/>
					<path class="st18" d="M396.5,124.7c-0.4-0.5-0.4-1.2,0-1.7c0.2-0.2,0.5-0.4,0.9-0.3c0.3,0,0.6,0.1,0.8,0.3
						c0.5,0.5,0.5,1.2,0,1.7c-0.2,0.2-0.5,0.4-0.8,0.3C397,125.1,396.7,125,396.5,124.7 M398.3,135.1h-2v-7.7c0-0.3,0.1-0.5,0.3-0.7
						c0.2-0.2,0.5-0.2,0.8-0.2c0.2,0,0.3,0,0.5,0.1c0.1,0,0.3,0.1,0.4,0.1L398.3,135.1z"/>
					<path class="st18" d="M404.7,135.4c-0.8,0-1.7-0.2-2.4-0.6c-0.7-0.4-1.2-0.9-1.6-1.6c-0.4-0.7-0.6-1.5-0.6-2.3
						c0-0.8,0.2-1.7,0.6-2.4c0.4-0.7,1-1.2,1.7-1.6c0.7-0.4,1.6-0.6,2.4-0.6c1,0,1.9,0.2,2.7,0.8c0.7,0.5,1,1.3,1,2.1
						c0,0.8-0.4,1.6-1.2,2c-1.2,0.5-2.5,0.8-3.8,0.7h-0.6h-0.7c0.1,0.6,0.4,1.1,0.9,1.4c0.6,0.4,1.3,0.6,2,0.5
						c0.8,0,1.6-0.2,2.3-0.6l0.7,1.4c-0.3,0.2-0.6,0.3-0.9,0.5c-0.4,0.1-0.8,0.2-1.2,0.3C405.5,135.4,405.1,135.5,404.7,135.4
						 M404.7,127.9c-0.7,0-1.4,0.2-1.9,0.7c-0.5,0.5-0.8,1.2-0.8,1.9h0.6h0.9c2,0,3-0.5,3-1.4c0-0.4-0.2-0.7-0.5-1
						C405.7,128,405.2,127.8,404.7,127.9"/>
					<path class="st18" d="M418.8,130.4c0,0.9-0.2,1.8-0.6,2.7c-0.3,0.7-0.9,1.3-1.6,1.7c-0.7,0.4-1.6,0.7-2.4,0.7
						c-0.9,0-1.7-0.2-2.5-0.6c-0.7-0.4-1.3-0.9-1.7-1.6c-0.4-0.7-0.6-1.5-0.6-2.4c0-0.8,0.2-1.6,0.6-2.3c0.4-0.7,0.9-1.2,1.6-1.6
						c0.7-0.4,1.4-0.6,2.2-0.6c0.6,0,1.2,0.1,1.7,0.4c0.5,0.2,0.9,0.6,1.2,1v-4.3c0-0.3,0.1-0.5,0.3-0.7c0.2-0.2,0.5-0.2,0.8-0.2
						c0.2,0,0.3,0,0.5,0.1c0.1,0,0.3,0.1,0.4,0.1L418.8,130.4z M412.3,128.8c-1,1.2-1,2.9,0,4c1.1,1,2.8,1,3.8,0c1-1.2,1-2.9,0-4
						C415.1,127.7,413.4,127.7,412.3,128.8"/>
					<path class="st18" d="M426.5,126.4c0-1,0.4-2,1.3-2.6c1-0.7,2.3-1,3.5-0.9c0.8,0,1.5,0.1,2.3,0.3c0.6,0.1,1.2,0.3,1.7,0.6
						c0.4,0.2,0.6,0.5,0.6,0.9c0,0.2-0.1,0.5-0.2,0.7c-0.1,0.2-0.3,0.4-0.5,0.5c-0.3-0.3-0.6-0.5-1-0.6c-0.4-0.2-0.9-0.3-1.4-0.5
						c-0.5-0.1-1-0.2-1.5-0.2c-1.8,0-2.7,0.6-2.7,1.6c0,0.4,0.2,0.8,0.5,1c0.5,0.3,1.1,0.5,1.7,0.6l1.9,0.4c1.1,0.1,2.1,0.5,2.9,1.2
						c0.6,0.6,1,1.4,0.9,2.2c0,1.1-0.5,2.1-1.3,2.7c-1.1,0.7-2.4,1-3.7,1c-0.6,0-1.3-0.1-1.9-0.2c-0.6-0.1-1.3-0.3-1.9-0.5
						c-0.5-0.2-1-0.4-1.4-0.7l0.9-1.6c0.4,0.2,0.8,0.5,1.3,0.6c0.5,0.2,1,0.3,1.5,0.4c0.5,0.1,1,0.1,1.5,0.2c1.9,0,2.8-0.6,2.8-1.7
						c0-0.4-0.2-0.8-0.5-1.1c-0.5-0.3-1.1-0.5-1.7-0.6l-1.9-0.3C427.8,129.3,426.5,128.2,426.5,126.4"/>
					<path class="st18" d="M438.5,128.2c0.4-0.7,1-1.2,1.7-1.6c0.8-0.4,1.7-0.6,2.6-0.6c0.5,0,1.1,0.1,1.6,0.2
						c0.4,0.1,0.8,0.3,1.1,0.5c0.2,0.2,0.4,0.4,0.4,0.7c0,0.2-0.1,0.4-0.2,0.6c-0.1,0.2-0.3,0.4-0.5,0.5c-0.3-0.3-0.6-0.5-1-0.6
						c-0.4-0.1-0.9-0.2-1.3-0.2c-0.7,0-1.5,0.2-2,0.7c-1.1,1.1-1.2,2.9-0.1,4c0.6,0.6,1.4,0.9,2.2,0.9c0.8,0,1.5-0.2,2.1-0.6
						l0.8,1.5c-1,0.6-2.1,0.9-3.2,0.9c-0.9,0-1.7-0.2-2.5-0.6c-0.7-0.4-1.2-0.9-1.6-1.6c-0.4-0.7-0.6-1.6-0.6-2.4
						C437.9,129.8,438.1,129,438.5,128.2"/>
					<path class="st18" d="M447.1,124.5c-0.4-0.5-0.4-1.2,0-1.7c0.2-0.2,0.5-0.4,0.9-0.3c0.3,0,0.6,0.1,0.8,0.3
						c0.5,0.5,0.5,1.2,0,1.7c-0.2,0.2-0.5,0.4-0.8,0.3C447.7,124.8,447.4,124.7,447.1,124.5 M449,134.9h-2v-7.7
						c0-0.3,0.1-0.5,0.3-0.7c0.2-0.2,0.5-0.2,0.8-0.2c0.2,0,0.3,0,0.5,0.1c0.1,0,0.3,0.1,0.4,0.1L449,134.9z"/>
					<path class="st18" d="M455.3,135.1c-0.8,0-1.7-0.2-2.4-0.6c-0.7-0.4-1.2-0.9-1.6-1.6c-0.4-0.7-0.6-1.5-0.6-2.3
						c0-0.8,0.2-1.7,0.6-2.4c0.4-0.7,1-1.2,1.7-1.6c0.7-0.4,1.6-0.6,2.4-0.6c1,0,1.9,0.2,2.7,0.8c0.7,0.5,1,1.3,1,2.1
						c0,0.8-0.4,1.6-1.2,2c-1.2,0.5-2.5,0.8-3.8,0.7h-0.6h-0.7c0.1,0.6,0.4,1.1,0.9,1.4c0.6,0.4,1.3,0.6,2,0.5
						c0.8,0,1.6-0.2,2.3-0.6l0.7,1.4c-0.3,0.2-0.6,0.3-0.9,0.4c-0.4,0.1-0.8,0.2-1.2,0.3C456.2,135.1,455.8,135.2,455.3,135.1
						 M455.4,127.6c-0.7,0-1.4,0.2-1.9,0.7c-0.5,0.5-0.8,1.2-0.8,1.9h0.6h0.9c2,0,3-0.5,3-1.4c0-0.4-0.2-0.7-0.5-1
						C456.3,127.7,455.8,127.6,455.4,127.6"/>
					<path class="st18" d="M460.6,129.7c0-1.4,0.8-2.6,2-3.2c0.7-0.3,1.4-0.5,2.2-0.5c0.8,0,1.5,0.1,2.2,0.5
						c0.6,0.3,1.1,0.7,1.5,1.3c0.4,0.6,0.5,1.2,0.5,1.9v5.2h-2v-4.7c0-0.6-0.2-1.3-0.6-1.8c-0.4-0.4-1-0.7-1.7-0.6
						c-1.5,0-2.2,0.8-2.2,2.4v4.7h-2L460.6,129.7z"/>
					<path class="st18" d="M471.2,128.2c0.4-0.7,1-1.3,1.7-1.6c0.8-0.4,1.7-0.6,2.6-0.6c0.5,0,1,0.1,1.6,0.2
						c0.4,0.1,0.8,0.3,1.1,0.5c0.2,0.2,0.4,0.4,0.4,0.7c0,0.2-0.1,0.4-0.2,0.6c-0.1,0.2-0.3,0.4-0.5,0.5c-0.3-0.3-0.6-0.5-1-0.6
						c-0.4-0.1-0.9-0.2-1.3-0.2c-0.7,0-1.5,0.2-2,0.7c-1.2,1.1-1.2,2.9-0.2,4c0.6,0.6,1.4,0.9,2.2,0.9c0.8,0,1.5-0.2,2.1-0.6
						l0.8,1.5c-1,0.6-2.1,0.9-3.2,0.9c-0.9,0-1.7-0.2-2.5-0.6c-0.7-0.4-1.2-0.9-1.6-1.6c-0.4-0.7-0.6-1.5-0.6-2.4
						C470.6,129.8,470.8,129,471.2,128.2"/>
					<path class="st18" d="M483.7,135.1c-0.8,0-1.7-0.2-2.4-0.6c-0.7-0.4-1.2-0.9-1.6-1.6c-0.4-0.7-0.6-1.5-0.6-2.3
						c0-0.8,0.2-1.7,0.6-2.4c0.4-0.7,1-1.2,1.7-1.6c0.7-0.4,1.6-0.6,2.4-0.6c1,0,1.9,0.2,2.7,0.8c0.7,0.5,1,1.3,1,2.1
						c0,0.8-0.4,1.6-1.2,2c-1.2,0.5-2.5,0.8-3.8,0.7h-0.6h-0.7c0.1,0.6,0.4,1.1,0.9,1.4c0.6,0.4,1.3,0.6,2,0.5
						c0.8,0,1.6-0.2,2.3-0.6l0.7,1.4c-0.3,0.2-0.6,0.3-0.9,0.4c-0.4,0.1-0.8,0.2-1.2,0.3C484.6,135.1,484.2,135.2,483.7,135.1
						 M483.8,127.6c-0.7,0-1.4,0.2-1.9,0.7c-0.5,0.5-0.8,1.2-0.8,1.9h0.6h0.9c2,0,3-0.5,3-1.4c0-0.4-0.2-0.7-0.5-1
						C484.7,127.7,484.3,127.6,483.8,127.6"/>
					<path class="st18" d="M496.8,132.3c0,0.8-0.4,1.6-1.1,2.1c-0.9,0.5-1.9,0.8-2.9,0.8c-0.6,0-1.1-0.1-1.7-0.2
						c-0.5-0.1-1.1-0.2-1.6-0.4c-0.4-0.1-0.8-0.3-1.1-0.5l0.7-1.3c0.5,0.3,1,0.5,1.5,0.6c0.7,0.2,1.3,0.3,2,0.3c1.4,0,2-0.3,2-1
						c0-0.7-0.6-0.9-1.7-1.1l-1.8-0.2c-0.7-0.1-1.4-0.3-2-0.8c-0.5-0.4-0.7-1.1-0.7-1.7c0-0.8,0.3-1.6,1-2c0.9-0.5,2-0.8,3-0.7
						c0.6,0,1.3,0.1,1.9,0.2c0.5,0.1,0.9,0.3,1.3,0.5c0.3,0.1,0.4,0.4,0.5,0.7c0,0.2-0.1,0.4-0.2,0.5c-0.1,0.2-0.3,0.3-0.4,0.4
						c-0.2-0.2-0.5-0.3-0.7-0.4c-0.4-0.1-0.8-0.2-1.2-0.3c-0.4-0.1-0.9-0.1-1.3-0.1c-0.5,0-1,0.1-1.4,0.3c-0.3,0.1-0.5,0.4-0.5,0.8
						c0,0.3,0.1,0.5,0.4,0.6c0.3,0.2,0.7,0.3,1.1,0.4l1.8,0.2C495.8,130.1,496.8,130.9,496.8,132.3"/>
					<path class="st18" d="M416.9,114.2c-0.8,0-1.7-0.2-2.4-0.6c-0.7-0.4-1.2-0.9-1.6-1.6c-0.4-0.7-0.6-1.5-0.6-2.3
						c0-0.8,0.2-1.7,0.6-2.4c0.4-0.7,1-1.2,1.7-1.6c0.7-0.4,1.6-0.6,2.4-0.6c1,0,1.9,0.2,2.7,0.8c0.7,0.5,1,1.3,1,2.1
						c0,0.8-0.4,1.6-1.2,2c-1.2,0.5-2.5,0.7-3.8,0.7H415h-0.7c0.1,0.6,0.4,1.1,0.9,1.4c0.6,0.4,1.3,0.6,2,0.5c0.8,0,1.6-0.2,2.3-0.6
						l0.7,1.3c-0.3,0.2-0.6,0.3-0.9,0.5c-0.4,0.1-0.8,0.2-1.2,0.3C417.7,114.2,417.3,114.2,416.9,114.2 M416.9,106.6
						c-0.7,0-1.4,0.2-1.9,0.7c-0.5,0.5-0.8,1.2-0.7,2h1.5c2,0,3-0.5,3-1.3c0-0.4-0.2-0.7-0.5-1C417.8,106.8,417.4,106.6,416.9,106.6
						"/>
					<path class="st18" d="M331.4,114.2c-0.8,0-1.7-0.2-2.4-0.6c-0.7-0.4-1.2-0.9-1.6-1.6c-0.8-1.5-0.8-3.3,0-4.7
						c0.4-0.7,1-1.2,1.7-1.6c0.7-0.4,1.6-0.6,2.4-0.6c1,0,1.9,0.2,2.7,0.8c0.7,0.5,1,1.3,1,2.1c0,0.8-0.4,1.6-1.2,2
						c-1.2,0.5-2.5,0.7-3.8,0.7h-0.6h-0.7c0.1,0.6,0.4,1.1,0.9,1.4c0.6,0.4,1.3,0.6,2,0.5c0.8,0,1.6-0.2,2.3-0.6l0.7,1.4
						c-0.3,0.2-0.6,0.3-0.9,0.5c-0.4,0.1-0.8,0.2-1.2,0.3C332.2,114.2,331.8,114.3,331.4,114.2 M331.4,106.7c-0.7,0-1.4,0.2-1.9,0.7
						c-0.5,0.5-0.8,1.2-0.8,1.9h1.5c2,0,3-0.5,3-1.3c0-0.4-0.2-0.7-0.5-1C332.4,106.8,331.9,106.7,331.4,106.7"/>
					<path class="st18" d="M330.6,134.9c-0.6,0.1-1.2,0.1-1.9,0.2c-0.7,0.1-1.3,0.1-1.8,0.1c-1.1,0.1-2.2-0.2-3.2-0.7
						c-0.7-0.5-1.2-1.3-1.1-2.1c0-0.8,0.3-1.5,0.9-2c0.9-0.5,2-0.8,3.1-0.7c0.3,0,0.7,0,1.1,0c0.4,0,0.7,0,1,0.1
						c0.1-0.6-0.2-1.1-0.6-1.5c-0.6-0.4-1.2-0.5-1.9-0.5c-0.5,0-1,0.1-1.4,0.2c-0.3,0.1-0.7,0.2-0.9,0.4c-0.1-0.1-0.2-0.2-0.3-0.4
						c-0.3-0.5-0.1-1.1,0.4-1.4c0,0,0.1,0,0.1-0.1c0.7-0.3,1.4-0.4,2.1-0.3c1.2-0.1,2.4,0.2,3.3,0.9c0.8,0.7,1.2,1.7,1.1,2.7
						L330.6,134.9z M325.1,133.4c0.6,0.2,1.2,0.3,1.8,0.3c0.3,0,0.7,0,1,0c0.3,0,0.5-0.1,0.8-0.1v-2.4c-0.3-0.1-0.7-0.1-1-0.1
						c-0.4,0-0.7,0-1,0c-0.6-0.1-1.2,0.1-1.7,0.4c-0.3,0.2-0.5,0.6-0.5,1C324.4,132.8,324.7,133.2,325.1,133.4"/>
				</g>
			</g>
		</g>
	</g>
</g>
</svg>
